<?xml version="1.0" encoding="UTF-8" standalone="no"?>
<svg
   xmlns:dc="http://purl.org/dc/elements/1.1/"
   xmlns:cc="http://creativecommons.org/ns#"
   xmlns:rdf="http://www.w3.org/1999/02/22-rdf-syntax-ns#"
   xmlns:svg="http://www.w3.org/2000/svg"
   xmlns="http://www.w3.org/2000/svg"
   xmlns:sodipodi="http://sodipodi.sourceforge.net/DTD/sodipodi-0.dtd"
   xmlns:inkscape="http://www.inkscape.org/namespaces/inkscape"
   class="icon-logo-hero"
   version="1.1"
   x="0px"
   y="0px"
   viewBox="-3627 353 100 100"
   xml:space="preserve"
   id="svg2"
   inkscape:version="0.91 r13725"
   sodipodi:docname="a11yLogo.svg"
   width="100"
   height="100"><metadata
     id="metadata10"><rdf:RDF><cc:Work
         rdf:about=""><dc:format>image/svg+xml</dc:format><dc:type
           rdf:resource="http://purl.org/dc/dcmitype/StillImage" /><dc:title></dc:title></cc:Work></rdf:RDF></metadata><defs
     id="defs8" /><sodipodi:namedview
     pagecolor="#ffffff"
     bordercolor="#666666"
     borderopacity="1"
     objecttolerance="10"
     gridtolerance="10"
     guidetolerance="10"
     inkscape:pageopacity="0"
     inkscape:pageshadow="2"
     inkscape:window-width="1920"
     inkscape:window-height="1053"
     id="namedview6"
     showgrid="false"
     fit-margin-top="0"
     fit-margin-left="0"
     fit-margin-right="0"
     fit-margin-bottom="0"
     inkscape:zoom="0.23046875"
     inkscape:cx="-147.52542"
     inkscape:cy="509.2"
     inkscape:window-x="-9"
     inkscape:window-y="-9"
     inkscape:window-maximized="1"
     inkscape:current-layer="svg2" /><path
     d="m -3577,353 c -27.6146,0 -50,22.3854 -50,50 0,27.6146 22.3854,50 50,50 27.6146,0 50,-22.3854 50,-50 0,-27.6146 -22.3854,-50 -50,-50 z m -0.754,9.9295 c 3.584,0 6.4826,2.8985 6.4826,6.4532 0,3.584 -2.8986,6.4826 -6.4826,6.4826 -3.5547,0 -6.4532,-2.8986 -6.4532,-6.4826 -0.01,-3.5547 2.8888,-6.4532 6.4532,-6.4532 l 0,0 z m 28.016,20.8872 -19.2322,2.4285 0.01,19.2519 9.3223,31.1104 c 0.4896,1.9683 -0.6854,3.9268 -2.6341,4.4164 -1.9389,0.4896 -3.9268,-0.5876 -4.4164,-2.546 l -9.5476,-28.3197 -2.9377,0 -8.7838,28.9072 c -0.7344,1.8899 -2.8398,2.7517 -4.7199,2.0172 -1.8704,-0.7246 -3.0063,-2.8495 -2.2719,-4.7395 l 8.069,-30.5327 0,-19.5652 -17.7243,-2.4089 c -1.8214,-0.1469 -3.0552,-1.7431 -2.9083,-3.5645 0.1371,-1.8311 1.792,-3.1923 3.6036,-3.0454 l 21.5335,1.8508 9.4398,0 22.9241,-1.89 c 1.8213,-0.068 3.3685,1.3416 3.4273,3.1826 0.078,1.8116 -1.3318,3.3685 -3.1532,3.4469 l 0,0 z"
     id="path4"
     inkscape:connector-curvature="0" /></svg>