<svg
   xmlns="http://www.w3.org/2000/svg"
   width="auto"
   height="100%"
   viewBox="0 0 285.946 302.327"
>
  <style>
    path {
      fill: none;
      stroke: #00796b;
      stroke-width: 3.75;
      stroke-linecap: round;
      stroke-linejoin: round;
    }
  </style>
  <path
     d="M 1.902,280.428 131.679,2.118"
  />
  <path
     d="m 42.576,300.428 32.641,-70"
  />
  <path
     d="M 75.217,230.428 H 213.142"
  />
  <path
     d="m 213.142,230.428 32.641,70"
  />
  <path
     d="m 245.783,300.428 h 26.348"
  />
  <path
     d="m 59.543,210.428 -32.641,70"
  />
  <path
     d="m 26.902,280.428 h -25"
  />
  <path
     d="m 42.576,300.428 -15.674,-20"
  />
  <path
     d="m 42.576,300.428 h -25"
  />
  <path
     d="m 17.576,300.428 -15.674,-20"
  />
  <path
     d="M 156.68,55.732 93.87,190.428"
  />
  <path
     d="M 156.782,1.9 68.869,190.427"
  />
  <path
     d="m 131.577,1.9 h 25.205"
  />
  <path
     d="M 284.06,274.847 156.782,1.9"
  />
  <path
     d="m 284.06,274.847 -11.93,25.581"
  />
  <path
     d="M 59.543,210.428 H 203.816"
  />
  <path
     d="M 203.816,210.428 144.179,82.538"
  />
  <path
     d="M 194.49,190.428 H 68.87"
  />
  <path
     d="M 156.68,55.732 272.13,300.428"
  />
</svg>
