<?xml version="1.0" encoding="UTF-8" standalone="no"?>
<!-- Generator: Adobe Illustrator 16.0.0, SVG Export Plug-In . SVG Version: 6.00 Build 0)  -->

<svg
   xmlns:dc="http://purl.org/dc/elements/1.1/"
   xmlns:cc="http://creativecommons.org/ns#"
   xmlns:rdf="http://www.w3.org/1999/02/22-rdf-syntax-ns#"
   xmlns:svg="http://www.w3.org/2000/svg"
   xmlns="http://www.w3.org/2000/svg"
   xmlns:sodipodi="http://sodipodi.sourceforge.net/DTD/sodipodi-0.dtd"
   xmlns:inkscape="http://www.inkscape.org/namespaces/inkscape"
   version="1.1"
   id="Layer_1"
   x="0px"
   y="0px"
   width="100%"
   height="auto"
   viewBox="0 0 100 100"
   enable-background="new 0 0 600 400"
   xml:space="preserve"
   inkscape:version="0.91 r13725"
   sodipodi:docname="BitbucketLogo.svg"><metadata
     id="metadata12859"><rdf:RDF><cc:Work
         rdf:about=""><dc:format>image/svg+xml</dc:format><dc:type
           rdf:resource="http://purl.org/dc/dcmitype/StillImage" /><dc:title>Bitbucket-blue</dc:title></cc:Work></rdf:RDF></metadata><defs
     id="defs12857" /><sodipodi:namedview
     pagecolor="#ffffff"
     bordercolor="#666666"
     borderopacity="1"
     objecttolerance="10"
     gridtolerance="10"
     guidetolerance="10"
     inkscape:pageopacity="0"
     inkscape:pageshadow="2"
     inkscape:window-width="1920"
     inkscape:window-height="1053"
     id="namedview12855"
     showgrid="false"
     inkscape:zoom="1.18"
     inkscape:cx="-158.02972"
     inkscape:cy="135.05512"
     inkscape:window-x="-9"
     inkscape:window-y="-9"
     inkscape:window-maximized="1"
     inkscape:current-layer="Layer_1" /><title
     id="title12827">Bitbucket-blue</title><g
     id="g17358"
     transform="matrix(1.183958,0,0,1.183958,-9.197901,-9.1978997)"><path
       style="fill:#0052cc;fill-opacity:1"
       inkscape:connector-curvature="0"
       id="path12851"
       d="m 10.509988,12.025513 c -1.4940004,-0.02 -2.7220004,1.176 -2.7410004,2.671 -0.002,0.157 0.01,0.313 0.035,0.468 l 11.4880004,69.738 c 0.295,1.762 1.813,3.057 3.599,3.071 l 55.111,0 c 1.341,0.017 2.492,-0.95 2.706,-2.273 l 11.488,-70.523 c 0.239,-1.475 -0.763,-2.865 -2.238,-3.104 -0.155,-0.025 -0.312,-0.037 -0.468,-0.035 l -78.98,-0.013 z m 48.373,50.402 -17.59,0 -4.763,-24.884 26.615,0 -4.262,24.884 z" /><path
       style="fill:#0052cc;fill-opacity:1"
       inkscape:connector-curvature="0"
       id="path12853"
       d="m 88.542988,37.544513 -25.398,0 -4.262,24.884 -17.59,0 -20.77,24.652 c 0.658,0.57 1.498,0.887 2.368,0.894 l 55.125,0 c 1.34,0.017 2.492,-0.95 2.706,-2.273 l 7.821,-48.157 z" /></g></svg>