<?xml version="1.0" encoding="UTF-8" standalone="no"?>
<svg
   xmlns:dc="http://purl.org/dc/elements/1.1/"
   xmlns:cc="http://creativecommons.org/ns#"
   xmlns:rdf="http://www.w3.org/1999/02/22-rdf-syntax-ns#"
   xmlns:svg="http://www.w3.org/2000/svg"
   xmlns="http://www.w3.org/2000/svg"
   xmlns:sodipodi="http://sodipodi.sourceforge.net/DTD/sodipodi-0.dtd"
   xmlns:inkscape="http://www.inkscape.org/namespaces/inkscape"
   width="100"
   height="100"
   viewBox="0 0 100 100"
   id="svg5916"
   version="1.1"
   inkscape:version="0.91 r13725"
   sodipodi:docname="chartjs-logo.svg">
  <metadata
     id="metadata5934">
    <rdf:RDF>
      <cc:Work
         rdf:about="">
        <dc:format>image/svg+xml</dc:format>
        <dc:type
           rdf:resource="http://purl.org/dc/dcmitype/StillImage" />
        <dc:title>Artboard 6</dc:title>
      </cc:Work>
    </rdf:RDF>
  </metadata>
  <defs
     id="defs5932" />
  <sodipodi:namedview
     pagecolor="#ffffff"
     bordercolor="#666666"
     borderopacity="1"
     objecttolerance="10"
     gridtolerance="10"
     guidetolerance="10"
     inkscape:pageopacity="0"
     inkscape:pageshadow="2"
     inkscape:window-width="1440"
     inkscape:window-height="855"
     id="namedview5930"
     showgrid="false"
     inkscape:zoom="1.475"
     inkscape:cx="-4.7457627"
     inkscape:cy="80"
     inkscape:window-x="0"
     inkscape:window-y="1"
     inkscape:window-maximized="1"
     inkscape:current-layer="svg5916" />
  <title
     id="title5918">Artboard 6</title>
  <g
     id="g5936"
     transform="matrix(0.6359802,0,0,0.6359802,-0.878416,-0.878416)">
    <g
       id="g5920"
       style="fill:none;fill-rule:evenodd">
      <path
         id="path5922"
         d="m 144.086,80.568 c -21.978,0.43 -17.402,14.346 -32.89,17.866 C 95.46,102.01 92.975,60 77.243,60 61.51,60 58.027,100.806 38.325,128.823 l -0.56,0.794 L 80,154 l 64.086,-37 0,-36.432 z"
         inkscape:connector-curvature="0"
         style="fill:#36a2eb" />
      <path
         id="path5924"
         d="M 144.086,79.3 C 136.726,69.856 131.736,59 121,59 102,59 107,90 86,90 65,90 62.793,56.654 39,88 31.42,97.988 25.318,109.124 20.525,119.662 L 80,154 l 64.086,-37 0,-37.7 z"
         inkscape:connector-curvature="0"
         style="fill:#ffce56" />
      <path
         id="path5926"
         d="M 15.914,92.143 C 23.124,72.173 26.237,56 40,56 c 21,0 26,59 44,53 18,-6 16,-38 44,-38 5.33,0 10.772,3.263 16.086,8.546 l 0,37.454 L 80,154 15.914,117 l 0,-24.857 z"
         inkscape:connector-curvature="0"
         style="fill:#fe6184;fill-opacity:0.8" />
      <path
         id="path5928"
         d="m 80,6 64.086,37 0,74 L 80,154 15.914,117 l 0,-74 z"
         inkscape:connector-curvature="0"
         style="stroke:#e7e9ed;stroke-width:8" />
    </g>
  </g>
</svg>
