<?xml version="1.0" encoding="UTF-8" standalone="no"?>
<!-- Generator: Adobe Illustrator 18.1.1, SVG Export Plug-In . SVG Version: 6.00 Build 0)  -->

<svg
   xmlns:dc="http://purl.org/dc/elements/1.1/"
   xmlns:cc="http://creativecommons.org/ns#"
   xmlns:rdf="http://www.w3.org/1999/02/22-rdf-syntax-ns#"
   xmlns:svg="http://www.w3.org/2000/svg"
   xmlns="http://www.w3.org/2000/svg"
   xmlns:sodipodi="http://sodipodi.sourceforge.net/DTD/sodipodi-0.dtd"
   xmlns:inkscape="http://www.inkscape.org/namespaces/inkscape"
   version="1.1"
   id="Capa_1"
   x="0px"
   y="0px"
   viewBox="0 0 100 100"
   xml:space="preserve"
   inkscape:version="0.91 r13725"
   sodipodi:docname="close-envelope (1).svg"
   width="100%"
   height="100"><metadata
     id="metadata49"><rdf:RDF><cc:Work
         rdf:about=""><dc:format>image/svg+xml</dc:format><dc:type
           rdf:resource="http://purl.org/dc/dcmitype/StillImage" /><dc:title></dc:title></cc:Work></rdf:RDF></metadata><defs
     id="defs47" /><sodipodi:namedview
     pagecolor="#ffffff"
     bordercolor="#666666"
     borderopacity="1"
     objecttolerance="10"
     gridtolerance="10"
     guidetolerance="10"
     inkscape:pageopacity="0"
     inkscape:pageshadow="2"
     inkscape:window-width="1920"
     inkscape:window-height="1053"
     id="namedview45"
     showgrid="false"
     inkscape:zoom="2.97995"
     inkscape:cx="-42.050793"
     inkscape:cy="61.712772"
     inkscape:window-x="-9"
     inkscape:window-y="-9"
     inkscape:window-maximized="1"
     inkscape:current-layer="Capa_1" /><g
     id="g3"
     transform="scale(7.1428571,7.1428571)"><g
       id="g5"><path
         style="fill:#030104"
         d="M 7,9 5.268,7.484 0.316,11.729 C 0.496,11.896 0.739,12 1.007,12 l 11.986,0 c 0.267,0 0.509,-0.104 0.688,-0.271 L 8.732,7.484 7,9 Z"
         id="path7"
         inkscape:connector-curvature="0" /><path
         style="fill:#030104"
         d="M 13.684,2.271 C 13.504,2.103 13.262,2 12.993,2 L 1.007,2 C 0.74,2 0.498,2.104 0.318,2.273 L 7,8 13.684,2.271 Z"
         id="path9"
         inkscape:connector-curvature="0" /><polygon
         style="fill:#030104"
         points="0,2.878 0,11.186 4.833,7.079 "
         id="polygon11" /><polygon
         style="fill:#030104"
         points="9.167,7.079 14,11.186 14,2.875 "
         id="polygon13" /></g></g><g
     id="g15"
     transform="translate(0,86)" /><g
     id="g17"
     transform="translate(0,86)" /><g
     id="g19"
     transform="translate(0,86)" /><g
     id="g21"
     transform="translate(0,86)" /><g
     id="g23"
     transform="translate(0,86)" /><g
     id="g25"
     transform="translate(0,86)" /><g
     id="g27"
     transform="translate(0,86)" /><g
     id="g29"
     transform="translate(0,86)" /><g
     id="g31"
     transform="translate(0,86)" /><g
     id="g33"
     transform="translate(0,86)" /><g
     id="g35"
     transform="translate(0,86)" /><g
     id="g37"
     transform="translate(0,86)" /><g
     id="g39"
     transform="translate(0,86)" /><g
     id="g41"
     transform="translate(0,86)" /><g
     id="g43"
     transform="translate(0,86)" /></svg>