<?xml version="1.0" encoding="UTF-8" standalone="no"?>
<svg
   xmlns:dc="http://purl.org/dc/elements/1.1/"
   xmlns:cc="http://creativecommons.org/ns#"
   xmlns:rdf="http://www.w3.org/1999/02/22-rdf-syntax-ns#"
   xmlns:svg="http://www.w3.org/2000/svg"
   xmlns="http://www.w3.org/2000/svg"
   xmlns:sodipodi="http://sodipodi.sourceforge.net/DTD/sodipodi-0.dtd"
   xmlns:inkscape="http://www.inkscape.org/namespaces/inkscape"
   width="100"
   height="100"
   viewBox="0 0 100 100"
   version="1.1"
   preserveAspectRatio="xMidYMid"
   id="svg52"
   sodipodi:docname="CloudfrontLogo.svg"
   inkscape:version="0.92.3 (2405546, 2018-03-11)">
  <metadata
     id="metadata58">
    <rdf:RDF>
      <cc:Work
         rdf:about="">
        <dc:format>image/svg+xml</dc:format>
        <dc:type
           rdf:resource="http://purl.org/dc/dcmitype/StillImage" />
        <dc:title></dc:title>
      </cc:Work>
    </rdf:RDF>
  </metadata>
  <defs
     id="defs56" />
  <sodipodi:namedview
     pagecolor="#ffffff"
     bordercolor="#666666"
     borderopacity="1"
     objecttolerance="10"
     gridtolerance="10"
     guidetolerance="10"
     inkscape:pageopacity="0"
     inkscape:pageshadow="2"
     inkscape:window-width="2400"
     inkscape:window-height="1271"
     id="namedview54"
     showgrid="false"
     inkscape:zoom="0.76623377"
     inkscape:cx="128"
     inkscape:cy="154"
     inkscape:window-x="-9"
     inkscape:window-y="-5"
     inkscape:window-maximized="1"
     inkscape:current-layer="svg52" />
  <g
     id="g50"
     transform="matrix(0.32505843,0,0,0.32505843,8.392521,-1.14955e-7)">
    <g
       transform="translate(165,48)"
       id="g8">
      <path
         d="M 1.01,79.465 60.212398,73.150914 90.888,79.52 90.999,79.588 34.441,82.962 0.957,79.52 Z"
         id="path2"
         inkscape:connector-curvature="0"
         style="fill:#5e1f18" />
      <path
         d="M 0.958,79.521 60.162,74.896 60.569,74.303 60.571,1.259 60.164,0.424 0.958,15.821 v 63.7"
         id="path4"
         inkscape:connector-curvature="0"
         style="fill:#8c3123" />
      <path
         d="M 91,79.59 60.162,74.896 60.164,0.424 90.999,15.852 91,79.59"
         id="path6"
         inkscape:connector-curvature="0"
         style="fill:#e05243" />
    </g>
    <g
       transform="translate(165,176)"
       id="g16">
      <path
         d="M 0.958,4.115 1.823,4.721 60.172,8.68 89.944,4.721 90.999,4.142 34.442,0.667 0.958,4.115"
         id="path10"
         inkscape:connector-curvature="0"
         style="fill:#f2b0a9" />
      <path
         d="M 0.958,4.115 60.172,8.52 60.355,8.766 60.31,82.708 60.164,83.094 0.958,67.819 V 4.115"
         id="path12"
         inkscape:connector-curvature="0"
         style="fill:#8c3123" />
      <path
         d="M 90.999,4.142 60.172,8.52 60.164,83.094 90.999,67.785 V 4.142"
         id="path14"
         inkscape:connector-curvature="0"
         style="fill:#e05243" />
    </g>
    <g
       transform="translate(0,48)"
       id="g24">
      <path
         d="M 89.119,79.408 30.588672,74.394141 0.195,79.439 0.002,79.59 56.559,82.964 89.433,79.588 Z"
         id="path18"
         inkscape:connector-curvature="0"
         style="fill:#5e1f18" />
      <path
         d="m 0.002,79.59 30.557,-4.474 0.899,-0.637 V 1.279 L 30.559,0.424 0.002,15.855 V 79.59"
         id="path20"
         inkscape:connector-curvature="0"
         style="fill:#8c3123" />
      <path
         d="M 89.433,79.588 30.559,75.116 V 0.424 l 58.877,15.397 -0.003,63.767"
         id="path22"
         inkscape:connector-curvature="0"
         style="fill:#e05243" />
    </g>
    <g
       transform="translate(0,176)"
       id="g32">
      <path
         d="M 89.433,4.142 88.082,5.127 30.559,9.44 0.976,5.127 0,4.142 56.559,0.667 89.433,4.142"
         id="path26"
         inkscape:connector-curvature="0"
         style="fill:#f2b0a9" />
      <path
         d="m 0,4.142 30.558,4.34 0.777,0.952 0.083,72.333 -0.859,1.327 L 0.002,67.785 0,4.142"
         id="path28"
         inkscape:connector-curvature="0"
         style="fill:#8c3123" />
      <path
         d="M 89.433,4.142 30.558,8.482 30.559,83.094 89.433,67.819 V 4.142"
         id="path30"
         inkscape:connector-curvature="0"
         style="fill:#e05243" />
    </g>
    <g
       transform="translate(66,183)"
       id="g40">
      <path
         d="M 123.104,6.66 62.001,0.634 0.289,6.661 1.159,7.396 61.7,17.013 122.233,7.396 123.104,6.66"
         id="path34"
         inkscape:connector-curvature="0"
         style="fill:#f2b0a9" />
      <path
         d="M 0.289,6.661 61.7,15.659 62.323,16.492 62.402,123.451 61.7,124.637 0.289,93.931 V 6.661"
         id="path36"
         inkscape:connector-curvature="0"
         style="fill:#8c3123" />
      <path
         d="M 123.104,6.66 61.7,15.659 V 124.637 L 123.105,93.931 123.104,6.66"
         id="path38"
         inkscape:connector-curvature="0"
         style="fill:#e05243" />
    </g>
    <g
       transform="translate(66)"
       id="g48">
      <path
         d="m 62.001,123.933 -61.712,-5.958 0.159,-0.091 61.249001,-9.50197 61.221999,9.52397 0.186,0.069 z"
         id="path42"
         inkscape:connector-curvature="0"
         style="fill:#5e1f18" />
      <path
         d="M 0.289,117.975 61.7,109.026 61.994,108.758 61.858,0.165 61.7,0 0.289,30.709 v 87.266"
         id="path44"
         inkscape:connector-curvature="0"
         style="fill:#8c3123" />
      <path
         d="M 123.105,117.975 61.7,109.026 V 0 l 61.405,30.709 v 87.266"
         id="path46"
         inkscape:connector-curvature="0"
         style="fill:#e05243" />
    </g>
  </g>
</svg>
