<?xml version="1.0" encoding="UTF-8" standalone="no"?>
<svg
   xmlns:dc="http://purl.org/dc/elements/1.1/"
   xmlns:cc="http://creativecommons.org/ns#"
   xmlns:rdf="http://www.w3.org/1999/02/22-rdf-syntax-ns#"
   xmlns:svg="http://www.w3.org/2000/svg"
   xmlns="http://www.w3.org/2000/svg"
   xmlns:sodipodi="http://sodipodi.sourceforge.net/DTD/sodipodi-0.dtd"
   xmlns:inkscape="http://www.inkscape.org/namespaces/inkscape"
   version="1.1"
   id="svg3363"
   viewBox="0 0 100 100.00001"
   height="100"
   width="100"
   inkscape:version="0.91 r13725"
   sodipodi:docname="GSuiteLogo.svg">
  <sodipodi:namedview
     pagecolor="#ffffff"
     bordercolor="#666666"
     borderopacity="1"
     objecttolerance="10"
     gridtolerance="10"
     guidetolerance="10"
     inkscape:pageopacity="0"
     inkscape:pageshadow="2"
     inkscape:window-width="1440"
     inkscape:window-height="855"
     id="namedview3432"
     showgrid="false"
     inkscape:zoom="1.7536248"
     inkscape:cx="274.73668"
     inkscape:cy="60.338011"
     inkscape:window-x="0"
     inkscape:window-y="1"
     inkscape:window-maximized="1"
     inkscape:current-layer="XMLID_54_" />
  <defs
     id="defs3365" />
  <metadata
     id="metadata3368">
    <rdf:RDF>
      <cc:Work
         rdf:about="">
        <dc:format>image/svg+xml</dc:format>
        <dc:type
           rdf:resource="http://purl.org/dc/dcmitype/StillImage" />
        <dc:title></dc:title>
      </cc:Work>
    </rdf:RDF>
  </metadata>
  <g
     transform="matrix(0.84037876,0,0,0.84037876,0.071356,-26.044129)"
     id="XMLID_54_"
     class="st0">
    <path
       style="fill:#737373;fill-opacity:1"
       d="m 89.160566,64.676136 c -3.733781,-3.81495 -7.792238,-6.737039 -12.094203,-8.766268 -4.301966,-2.029229 -9.740299,-3.003259 -15.990324,-3.003259 -5.032487,0 -9.821467,0.892861 -14.285771,2.678582 -4.464303,1.785721 -8.360422,4.301965 -11.688358,7.548731 -3.409104,3.246766 -6.087686,7.224055 -8.035746,11.850697 -1.948059,4.626641 -2.922089,9.740298 -2.922089,15.422139 0,5.68184 0.97403,10.795502 2.922089,15.422142 1.94806,4.62664 4.626642,8.52276 8.035746,11.76953 3.409105,3.24676 7.386393,5.84418 11.850697,7.6299 4.464303,1.78572 9.334452,2.67858 14.448109,2.67858 5.438333,0 10.227313,-0.73052 14.285771,-2.27274 4.058458,-1.54221 7.548731,-3.65261 10.470821,-6.25002 1.948059,-1.78572 3.733781,-3.97729 5.275995,-6.5747 1.542213,-2.67858 2.759751,-5.60067 3.652611,-8.84744 l -34.334551,0 0,-19.4806 56.006717,0 c 0.32468,1.298706 0.56819,2.84092 0.81169,4.78898 0.24351,1.948059 0.32468,3.733781 0.32468,5.600671 0,7.711069 -1.13637,14.691619 -3.4091,21.103979 -2.27274,6.41237 -5.76301,12.01304 -10.30849,16.96436 -5.113657,5.43833 -11.201344,9.57796 -18.344229,12.58122 -7.142885,3.00326 -15.34097,4.4643 -24.513084,4.4643 -8.279254,0 -16.071492,-1.46104 -23.376716,-4.4643 -7.305224,-3.00326 -13.717587,-7.14289 -19.237089,-12.41888 -5.438334,-5.276 -9.7402992,-11.52602 -12.9870653,-18.75008 -3.2467661,-7.22405 -4.78897997,-15.259803 -4.78897997,-23.863733 0,-8.60393 1.62338307,-16.558507 4.78897997,-23.863731 3.165597,-7.305224 7.4675623,-13.555249 12.9870653,-18.831244 5.438333,-5.275995 11.850696,-9.334452 19.237089,-12.337711 7.386393,-3.003259 15.178631,-4.464303 23.376716,-4.464303 9.415622,0 17.776044,1.623383 25.000099,4.870149 7.224055,3.246766 13.474081,7.711069 18.750074,13.39291 L 89.160566,64.676136 Z"
       id="XMLID_69_"
       inkscape:connector-curvature="0" />
  </g>
</svg>
