<?xml version="1.0" encoding="UTF-8" standalone="no"?>
<svg
   xmlns:dc="http://purl.org/dc/elements/1.1/"
   xmlns:cc="http://creativecommons.org/ns#"
   xmlns:rdf="http://www.w3.org/1999/02/22-rdf-syntax-ns#"
   xmlns:svg="http://www.w3.org/2000/svg"
   xmlns="http://www.w3.org/2000/svg"
   xmlns:sodipodi="http://sodipodi.sourceforge.net/DTD/sodipodi-0.dtd"
   xmlns:inkscape="http://www.inkscape.org/namespaces/inkscape"
   viewBox="0 0 100 100"
   id="svg4276"
   version="1.1"
   inkscape:version="0.91 r13725"
   sodipodi:docname="HTML5_logo_and_wordmark.svg"
   width="100"
   height="100">
  <metadata
     id="metadata4294">
    <rdf:RDF>
      <cc:Work
         rdf:about="">
        <dc:format>image/svg+xml</dc:format>
        <dc:type
           rdf:resource="http://purl.org/dc/dcmitype/StillImage" />
        <dc:title>HTML5 Logo</dc:title>
      </cc:Work>
    </rdf:RDF>
  </metadata>
  <defs
     id="defs4292" />
  <sodipodi:namedview
     pagecolor="#ffffff"
     bordercolor="#666666"
     borderopacity="1"
     objecttolerance="10"
     gridtolerance="10"
     guidetolerance="10"
     inkscape:pageopacity="0"
     inkscape:pageshadow="2"
     inkscape:window-width="1440"
     inkscape:window-height="855"
     id="namedview4290"
     showgrid="false"
     inkscape:zoom="0.4609375"
     inkscape:cx="-15.186441"
     inkscape:cy="256"
     inkscape:window-x="0"
     inkscape:window-y="1"
     inkscape:window-maximized="1"
     inkscape:current-layer="svg4276" />
  <title
     id="title4278">HTML5 Logo</title>
  <g
     id="g4296"
     transform="matrix(0.24307244,0,0,0.24307244,-12.226545,-24.453088)">
    <path
       id="path4282"
       d="m 107.6,471 -33,-370.4 362.8,0 -33,370.2 -148.7,41.2"
       inkscape:connector-curvature="0"
       style="fill:#e44d26" />
    <path
       id="path4284"
       d="M 256,480.5 256,131 404.3,131 376,447"
       inkscape:connector-curvature="0"
       style="fill:#f16529" />
    <path
       id="path4286"
       d="m 142,176.3 114,0 0,45.4 -64.2,0 4.2,46.5 60,0 0,45.3 -101.6,0 m 2,22.8 45.6,0 3.2,36.3 50.8,13.6 0,47.4 -93.2,-26"
       inkscape:connector-curvature="0"
       style="fill:#ebebeb" />
    <path
       id="path4288"
       d="m 369.6,176.3 -113.8,0 0,45.4 109.6,0 m -4.1,46.5 -105.5,0 0,45.4 56,0 -5.3,59 -50.7,13.6 0,47.2 93,-25.8"
       inkscape:connector-curvature="0"
       style="fill:#ffffff" />
  </g>
</svg>
