<?xml version="1.0" encoding="UTF-8" standalone="no"?>
<!-- Generator: Adobe Illustrator 16.0.0, SVG Export Plug-In . SVG Version: 6.00 Build 0)  -->

<svg
   xmlns:dc="http://purl.org/dc/elements/1.1/"
   xmlns:cc="http://creativecommons.org/ns#"
   xmlns:rdf="http://www.w3.org/1999/02/22-rdf-syntax-ns#"
   xmlns:svg="http://www.w3.org/2000/svg"
   xmlns="http://www.w3.org/2000/svg"
   xmlns:sodipodi="http://sodipodi.sourceforge.net/DTD/sodipodi-0.dtd"
   xmlns:inkscape="http://www.inkscape.org/namespaces/inkscape"
   version="1.1"
   id="Layer_1"
   x="0px"
   y="0px"
   width="100%"
   height="auto"
   viewBox="0 0 100 100"
   enable-background="new 0 0 600 400"
   xml:space="preserve"
   inkscape:version="0.91 r13725"
   sodipodi:docname="JIRALogo.svg"><metadata
     id="metadata21942"><rdf:RDF><cc:Work
         rdf:about=""><dc:format>image/svg+xml</dc:format><dc:type
           rdf:resource="http://purl.org/dc/dcmitype/StillImage" /><dc:title>Jira Software-blue</dc:title></cc:Work></rdf:RDF></metadata><defs
     id="defs21940" /><sodipodi:namedview
     pagecolor="#ffffff"
     bordercolor="#666666"
     borderopacity="1"
     objecttolerance="10"
     gridtolerance="10"
     guidetolerance="10"
     inkscape:pageopacity="0"
     inkscape:pageshadow="2"
     inkscape:window-width="1920"
     inkscape:window-height="1053"
     id="namedview21938"
     showgrid="false"
     inkscape:zoom="0.59"
     inkscape:cx="42.372881"
     inkscape:cy="200"
     inkscape:window-x="-9"
     inkscape:window-y="-9"
     inkscape:window-maximized="1"
     inkscape:current-layer="Layer_1" /><title
     id="title21904">Jira Software-blue</title><g
     id="g26447"
     transform="matrix(1.2840432,0,0,1.2840432,1.6370746,-206.80928)"
     style="fill:#0052cc;fill-opacity:1"><path
       inkscape:connector-curvature="0"
       id="path21932"
       d="m 74.424,197.821 -33.512,-33.512 -3.248,-3.248 0,0 -25.226,25.226 0,0 -11.533,11.534 c -1.203,1.204 -1.203,3.154 0,4.359 l 23.047,23.047 13.713,13.713 25.226,-25.227 0.391,-0.391 11.143,-11.143 c 1.202,-1.204 1.202,-3.154 -10e-4,-4.358 z M 37.665,211.514 26.151,200 37.664,188.487 49.178,200 37.665,211.514 Z"
       style="fill:#0052cc;fill-opacity:1" /><path
       inkscape:connector-curvature="0"
       id="path21934"
       d="m 37.665,188.487 c -7.538,-7.539 -7.575,-19.75 -0.083,-27.333 L 12.387,186.339 26.1,200.051 37.665,188.487 Z"
       style="fill:#0052cc;fill-opacity:1" /><path
       inkscape:connector-curvature="0"
       id="path21936"
       d="m 49.208,199.969 -11.544,11.544 c 7.573,7.568 7.577,19.844 0.008,27.418 -0.003,0.002 -0.006,0.005 -0.008,0.008 l 0,0 25.257,-25.258 -13.713,-13.712 z"
       style="fill:#0052cc;fill-opacity:1" /></g></svg>