<?xml version="1.0" encoding="UTF-8" standalone="no"?>
<svg
   xmlns:dc="http://purl.org/dc/elements/1.1/"
   xmlns:cc="http://creativecommons.org/ns#"
   xmlns:rdf="http://www.w3.org/1999/02/22-rdf-syntax-ns#"
   xmlns:svg="http://www.w3.org/2000/svg"
   xmlns="http://www.w3.org/2000/svg"
   xmlns:sodipodi="http://sodipodi.sourceforge.net/DTD/sodipodi-0.dtd"
   xmlns:inkscape="http://www.inkscape.org/namespaces/inkscape"
   enable-background="new 0 0 32 32"
   height="auto"
   id="Layer_1"
   version="1.0"
   viewBox="0 0 100 100"
   width="100%"
   xml:space="preserve"
   inkscape:version="0.91 r13725"
   sodipodi:docname="if_square-linkedin_317725.svg"><metadata
     id="metadata31"><rdf:RDF><cc:Work
         rdf:about=""><dc:format>image/svg+xml</dc:format><dc:type
           rdf:resource="http://purl.org/dc/dcmitype/StillImage" /><dc:title></dc:title></cc:Work></rdf:RDF></metadata><defs
     id="defs29" /><sodipodi:namedview
     pagecolor="#ffffff"
     bordercolor="#666666"
     borderopacity="1"
     objecttolerance="10"
     gridtolerance="10"
     guidetolerance="10"
     inkscape:pageopacity="0"
     inkscape:pageshadow="2"
     inkscape:window-width="1920"
     inkscape:window-height="1053"
     id="namedview27"
     showgrid="false"
     fit-margin-top="0"
     fit-margin-left="0"
     fit-margin-right="0"
     fit-margin-bottom="0"
     inkscape:zoom="7.375"
     inkscape:cx="-4.6101695"
     inkscape:cy="16"
     inkscape:window-x="-9"
     inkscape:window-y="-9"
     inkscape:window-maximized="1"
     inkscape:current-layer="Layer_1" /><g
     id="g3"
     transform="scale(3.125,3.125)"><path
       d="m 32,30 c 0,1.104 -0.896,2 -2,2 L 2,32 C 0.896,32 0,31.104 0,30 L 0,2 C 0,0.896 0.896,0 2,0 l 28,0 c 1.104,0 2,0.896 2,2 l 0,28 z"
       id="path5"
       inkscape:connector-curvature="0"
       style="fill:#007bb5" /><g
       id="g7"><rect
         height="14"
         width="4"
         x="7"
         y="11"
         id="rect9"
         style="fill:#ffffff" /><path
         d="M 20.499,11 C 17.708,11 17.228,12.018 17,13 l 0,-2 -4,0 0,14 4,0 0,-8 c 0,-1.297 0.703,-2 2,-2 1.266,0 2,0.688 2,2 l 0,8 4,0 0,-7 c 0,-4 -0.521,-7 -4.501,-7 z"
         id="path11"
         inkscape:connector-curvature="0"
         style="fill:#ffffff" /><circle
         cx="9"
         cy="8"
         r="2"
         id="circle13"
         style="fill:#ffffff" /></g></g><g
     id="g15"
     transform="translate(0,68)" /><g
     id="g17"
     transform="translate(0,68)" /><g
     id="g19"
     transform="translate(0,68)" /><g
     id="g21"
     transform="translate(0,68)" /><g
     id="g23"
     transform="translate(0,68)" /><g
     id="g25"
     transform="translate(0,68)" /></svg>