<?xml version="1.0" encoding="UTF-8" standalone="no"?>
<!-- Generator: Adobe Illustrator 16.0.0, SVG Export Plug-In . SVG Version: 6.00 Build 0)  -->

<svg
   xmlns:dc="http://purl.org/dc/elements/1.1/"
   xmlns:cc="http://creativecommons.org/ns#"
   xmlns:rdf="http://www.w3.org/1999/02/22-rdf-syntax-ns#"
   xmlns:svg="http://www.w3.org/2000/svg"
   xmlns="http://www.w3.org/2000/svg"
   xmlns:sodipodi="http://sodipodi.sourceforge.net/DTD/sodipodi-0.dtd"
   xmlns:inkscape="http://www.inkscape.org/namespaces/inkscape"
   version="1.1"
   id="Capa_1"
   x="0px"
   y="0px"
   width="100"
   height="100"
   viewBox="0 0 100 100"
   xml:space="preserve"
   inkscape:version="0.91 r13725"
   sodipodi:docname="location-pin.svg"><metadata
     id="metadata3443"><rdf:RDF><cc:Work
         rdf:about=""><dc:format>image/svg+xml</dc:format><dc:type
           rdf:resource="http://purl.org/dc/dcmitype/StillImage" /><dc:title></dc:title></cc:Work></rdf:RDF></metadata><defs
     id="defs3441" /><sodipodi:namedview
     pagecolor="#ffffff"
     bordercolor="#666666"
     borderopacity="1"
     objecttolerance="10"
     gridtolerance="10"
     guidetolerance="10"
     inkscape:pageopacity="0"
     inkscape:pageshadow="2"
     inkscape:window-width="1440"
     inkscape:window-height="855"
     id="namedview3439"
     showgrid="false"
     inkscape:zoom="1.3283643"
     inkscape:cx="125.34212"
     inkscape:cy="-107.28033"
     inkscape:window-x="0"
     inkscape:window-y="1"
     inkscape:window-maximized="1"
     inkscape:current-layer="Capa_1" /><g
     id="g3445"
     transform="matrix(0.20342486,0,0,0.20342486,2.3574e-7,2.3574e-7)"><g
       id="g3401"><g
         id="g3403"><path
           id="path3405"
           d="M 245.791,0 C 153.799,0 78.957,74.841 78.957,166.833 c 0,36.967 21.764,93.187 68.493,176.926 31.887,57.138 63.627,105.4 64.966,107.433 l 22.941,34.773 c 2.313,3.507 6.232,5.617 10.434,5.617 4.202,0 8.121,-2.11 10.434,-5.617 l 22.94,-34.771 C 280.491,449.184 312,401.339 344.132,343.759 390.861,260.024 412.625,203.804 412.625,166.833 412.625,74.841 337.783,0 245.791,0 Z m 76.511,331.576 c -31.685,56.775 -62.696,103.869 -64.003,105.848 l -12.508,18.959 -12.504,-18.954 C 231.973,435.434 200.724,387.918 169.28,331.576 125.935,253.9 103.957,198.472 103.957,166.833 103.957,88.626 167.583,25 245.791,25 c 78.208,0 141.834,63.626 141.834,141.833 0,31.643 -21.978,87.069 -65.323,164.743 z"
           inkscape:connector-curvature="0" /><path
           id="path3407"
           d="m 245.791,73.291 c -51.005,0 -92.5,41.496 -92.5,92.5 0,51.004 41.495,92.5 92.5,92.5 51.005,0 92.5,-41.496 92.5,-92.5 0,-51.004 -41.495,-92.5 -92.5,-92.5 z m 0,160 c -37.22,0 -67.5,-30.28 -67.5,-67.5 0,-37.22 30.28,-67.5 67.5,-67.5 37.221,0 67.5,30.28 67.5,67.5 0,37.22 -30.279,67.5 -67.5,67.5 z"
           inkscape:connector-curvature="0" /></g></g></g><g
     id="g3409"
     transform="translate(0,-391.582)" /><g
     id="g3411"
     transform="translate(0,-391.582)" /><g
     id="g3413"
     transform="translate(0,-391.582)" /><g
     id="g3415"
     transform="translate(0,-391.582)" /><g
     id="g3417"
     transform="translate(0,-391.582)" /><g
     id="g3419"
     transform="translate(0,-391.582)" /><g
     id="g3421"
     transform="translate(0,-391.582)" /><g
     id="g3423"
     transform="translate(0,-391.582)" /><g
     id="g3425"
     transform="translate(0,-391.582)" /><g
     id="g3427"
     transform="translate(0,-391.582)" /><g
     id="g3429"
     transform="translate(0,-391.582)" /><g
     id="g3431"
     transform="translate(0,-391.582)" /><g
     id="g3433"
     transform="translate(0,-391.582)" /><g
     id="g3435"
     transform="translate(0,-391.582)" /><g
     id="g3437"
     transform="translate(0,-391.582)" /></svg>