<?xml version="1.0" encoding="UTF-8" standalone="no"?>
<svg
   xmlns:dc="http://purl.org/dc/elements/1.1/"
   xmlns:cc="http://creativecommons.org/ns#"
   xmlns:rdf="http://www.w3.org/1999/02/22-rdf-syntax-ns#"
   xmlns:svg="http://www.w3.org/2000/svg"
   xmlns="http://www.w3.org/2000/svg"
   xmlns:sodipodi="http://sodipodi.sourceforge.net/DTD/sodipodi-0.dtd"
   xmlns:inkscape="http://www.inkscape.org/namespaces/inkscape"
   viewBox="0 0 100 99.999999"
   id="svg5542"
   version="1.1"
   inkscape:version="0.91 r13725"
   sodipodi:docname="material-ui-logo.svg"
   width="100"
   height="100">
  <metadata
     id="metadata5556">
    <rdf:RDF>
      <cc:Work
         rdf:about="">
        <dc:format>image/svg+xml</dc:format>
        <dc:type
           rdf:resource="http://purl.org/dc/dcmitype/StillImage" />
        <dc:title></dc:title>
      </cc:Work>
    </rdf:RDF>
  </metadata>
  <defs
     id="defs5554" />
  <sodipodi:namedview
     pagecolor="#ffffff"
     bordercolor="#666666"
     borderopacity="1"
     objecttolerance="10"
     gridtolerance="10"
     guidetolerance="10"
     inkscape:pageopacity="0"
     inkscape:pageshadow="2"
     inkscape:window-width="1440"
     inkscape:window-height="855"
     id="namedview5552"
     showgrid="false"
     inkscape:zoom="0.49517414"
     inkscape:cx="47.563556"
     inkscape:cy="238.3"
     inkscape:window-x="0"
     inkscape:window-y="1"
     inkscape:window-maximized="1"
     inkscape:current-layer="svg5542" />
  <g
     id="g5558"
     transform="matrix(0.16666667,0,0,0.16666667,0,10.308333)">
    <path
       id="path5544"
       d="M 0,259.8 0,0 l 225,129.9 0,86.6 -150,-86.6 0,173.2 z"
       inkscape:connector-curvature="0"
       style="fill:#00b0ff" />
    <path
       id="path5546"
       d="M 225,129.9 450,0 l 0,259.8 -150,86.6 -75,-43.3 150,-86.6 0,-86.6 -150,86.6 z"
       inkscape:connector-curvature="0"
       style="fill:#0081cb" />
    <path
       id="path5548"
       d="m 225,303.1 0,86.6 150,86.6 0,-86.6 z"
       inkscape:connector-curvature="0"
       style="fill:#00b0ff" />
    <path
       id="path5550"
       d="m 375,476.3 225,-129.9 0,-173.2 -75,43.3 0,86.6 -150,86.6 z M 525,129.9 525,43.3 600,0 l 0,86.6 z"
       inkscape:connector-curvature="0"
       style="fill:#0081cb" />
  </g>
</svg>
