<?xml version="1.0" encoding="UTF-8" standalone="no"?>
<svg
   xmlns:dc="http://purl.org/dc/elements/1.1/"
   xmlns:cc="http://creativecommons.org/ns#"
   xmlns:rdf="http://www.w3.org/1999/02/22-rdf-syntax-ns#"
   xmlns:svg="http://www.w3.org/2000/svg"
   xmlns="http://www.w3.org/2000/svg"
   xmlns:sodipodi="http://sodipodi.sourceforge.net/DTD/sodipodi-0.dtd"
   xmlns:inkscape="http://www.inkscape.org/namespaces/inkscape"
   width="100%"
   height="auto"
   viewBox="0 0 20.48 20.476858"
   id="svg2"
   version="1.1"
   inkscape:version="0.91 r13725"
   sodipodi:docname="mongodb.svg">
  <metadata
     id="metadata26">
    <rdf:RDF>
      <cc:Work
         rdf:about="">
        <dc:format>image/svg+xml</dc:format>
        <dc:type
           rdf:resource="http://purl.org/dc/dcmitype/StillImage" />
        <dc:title></dc:title>
      </cc:Work>
    </rdf:RDF>
  </metadata>
  <defs
     id="defs24" />
  <sodipodi:namedview
     pagecolor="#ffffff"
     bordercolor="#666666"
     borderopacity="1"
     objecttolerance="10"
     gridtolerance="10"
     guidetolerance="10"
     inkscape:pageopacity="0"
     inkscape:pageshadow="2"
     inkscape:window-width="1920"
     inkscape:window-height="1053"
     id="namedview22"
     showgrid="false"
     fit-margin-top="0"
     fit-margin-left="0"
     fit-margin-right="0"
     fit-margin-bottom="0"
     inkscape:zoom="7.68"
     inkscape:cx="22.389321"
     inkscape:cy="50.045551"
     inkscape:window-x="-9"
     inkscape:window-y="-9"
     inkscape:window-maximized="1"
     inkscape:current-layer="svg2" />
  <path
     style="fill:#ffffff;fill-rule:evenodd"
     inkscape:connector-curvature="0"
     id="path10"
     d="m 10.706149,20.478429 -0.545167,-0.18633 c 0,0 0.06658,-2.7793 -0.9309479,-2.97875 -0.6647779,-0.77142 0.1066411,-32.71477 2.5003029,-0.1065 0,0 -0.824596,0.41216 -0.970867,1.11714 -0.159674,0.69158 -0.05332,2.15444 -0.05332,2.15444 z" />
  <path
     style="fill:#a6a385;fill-rule:evenodd"
     inkscape:connector-curvature="0"
     id="path12"
     d="m 10.706149,20.478429 -0.545167,-0.18633 c 0,0 0.06658,-2.7793 -0.9309479,-2.97875 -0.6647779,-0.77142 0.1066411,-32.71477 2.5003029,-0.1065 0,0 -0.824596,0.41216 -0.970867,1.11714 -0.159674,0.69158 -0.05332,2.15444 -0.05332,2.15444 z" />
  <path
     style="fill:#ffffff;fill-rule:evenodd"
     inkscape:connector-curvature="0"
     id="path14"
     d="m 10.998836,17.792079 c 0,0 4.774353,-3.13856 3.657071,-9.6683201 -1.077076,-4.7474 -3.617153,-6.30335 -3.896437,-6.90184 C 10.453669,0.79636891 10.160982,0.05174891 10.160982,0.05174891 L 10.360574,13.257099 c 0,0.0134 -0.4122974,4.04285 0.638406,4.53513" />
  <path
     style="fill:#499d4a;fill-rule:evenodd"
     inkscape:connector-curvature="0"
     id="path16"
     d="m 10.998836,17.792079 c 0,0 4.774353,-3.13856 3.657071,-9.6683201 -1.077076,-4.7474 -3.617153,-6.30335 -3.896437,-6.90184 C 10.453669,0.79636891 10.160982,0.05174891 10.160982,0.05174891 L 10.360574,13.257099 c 0,0.0134 -0.4122974,4.04285 0.638406,4.53513" />
  <path
     style="fill:#ffffff;fill-rule:evenodd"
     inkscape:connector-curvature="0"
     id="path18"
     d="m 9.8818421,17.964869 c 0,0 -4.4818104,-3.05873 -4.215784,-8.4445401 0.2526242,-5.38595 3.4177047,-8.03238 4.0294502,-8.51111 0.3990397,-0.42555999 0.4122977,-0.58522999 0.4389577,-1.01078999 0.279285,0.59849 0.226108,8.95006999 0.265883,9.93405999 0.119611,3.7900801 -0.212706,7.3144301 -0.5185069,8.0323801 z" />
  <path
     style="fill:#58aa50;fill-rule:evenodd"
     inkscape:connector-curvature="0"
     id="path20"
     d="m 9.8818421,17.964869 c 0,0 -4.4818104,-3.05873 -4.215784,-8.4445401 0.2526242,-5.38595 3.4177047,-8.03238 4.0294502,-8.51111 0.3990397,-0.42555999 0.4122977,-0.58522999 0.4389577,-1.01078999 0.279285,0.59849 0.226108,8.95006999 0.265883,9.93405999 0.119611,3.7900801 -0.212706,7.3144301 -0.5185069,8.0323801 z" />
</svg>
