<?xml version="1.0" encoding="UTF-8" standalone="no"?>
<svg
   xmlns:dc="http://purl.org/dc/elements/1.1/"
   xmlns:cc="http://creativecommons.org/ns#"
   xmlns:rdf="http://www.w3.org/1999/02/22-rdf-syntax-ns#"
   xmlns:svg="http://www.w3.org/2000/svg"
   xmlns="http://www.w3.org/2000/svg"
   xmlns:sodipodi="http://sodipodi.sourceforge.net/DTD/sodipodi-0.dtd"
   xmlns:inkscape="http://www.inkscape.org/namespaces/inkscape"
   width="100"
   height="100"
   viewBox="0 0 100 100"
   version="1.1"
   preserveAspectRatio="xMidYMid"
   id="svg6"
   sodipodi:docname="NetlifyLogo.svg"
   inkscape:version="0.92.3 (2405546, 2018-03-11)">
  <metadata
     id="metadata12">
    <rdf:RDF>
      <cc:Work
         rdf:about="">
        <dc:format>image/svg+xml</dc:format>
        <dc:type
           rdf:resource="http://purl.org/dc/dcmitype/StillImage" />
        <dc:title></dc:title>
      </cc:Work>
    </rdf:RDF>
  </metadata>
  <defs
     id="defs10" />
  <sodipodi:namedview
     pagecolor="#ffffff"
     bordercolor="#666666"
     borderopacity="1"
     objecttolerance="10"
     gridtolerance="10"
     guidetolerance="10"
     inkscape:pageopacity="0"
     inkscape:pageshadow="2"
     inkscape:window-width="2400"
     inkscape:window-height="1271"
     id="namedview8"
     showgrid="false"
     inkscape:zoom="0.921875"
     inkscape:cx="128"
     inkscape:cy="128"
     inkscape:window-x="-9"
     inkscape:window-y="-5"
     inkscape:window-maximized="1"
     inkscape:current-layer="svg6" />
  <g
     id="g4"
     transform="matrix(0.3906189,0,0,0.3906189,7.808e-4,-4.378e-7)">
    <path
       d="M 153.09439,165.67859 90.309411,152.55838 c -0.268004,0.51201 -0.556009,1.00802 -0.876014,1.47603 l 57.156893,83.3773 3.44805,-3.44405 9.72416,-60.46895 c -3.30806,-1.38802 -5.79609,-4.28807 -6.66811,-7.82012 z M 130.19003,83.605306 c -2.35203,3.608057 -6.4121,5.996094 -11.03617,5.996094 -0.71201,0 -1.40402,-0.072 -2.08403,-0.180003 L 88.437382,134.2221 164.93458,101.30158 c -0.024,-0.308 -0.092,-0.59601 -0.092,-0.91201 0,-0.644011 0.088,-1.268021 0.192,-1.884031 z m 2.08004,-8.164127 37.06458,15.848247 c 1.17201,-0.916014 2.50803,-1.596025 3.97606,-2.008031 L 179.4028,51.400803 156.19444,28.19244 130.07003,69.069079 c 1.25202,1.848029 2.02803,4.024063 2.20004,6.3721 z m 77.66521,6.492101 -23.26036,-23.264363 -5.05608,31.408491 c 1.28802,0.65201 2.43604,1.520023 3.39605,2.58404 z m -55.72887,75.47318 c 1.81203,-3.27605 5.15608,-5.54009 9.08814,-5.84409 l 6.68011,-41.54865 c -0.52401,-0.34801 -0.99202,-0.76401 -1.45203,-1.19202 l -76.937199,33.11252 c 0.196003,0.80401 0.332005,1.62402 0.396006,2.47604 z M 216.27138,88.273379 189.35896,99.85356 255.76,128.242 256,128.002 Z m -48.09275,85.349331 -8.08813,50.28479 46.96473,-46.96474 -33.82852,-7.06411 c -1.29202,1.68403 -3.02405,2.98805 -5.04808,3.74406 z m -91.285428,-12.9282 c -1.700027,0 -3.328052,-0.292 -4.852076,-0.80801 l -15.600244,24.41238 -6.028094,-6.02409 14.776231,-23.12037 c -0.368006,-0.452 -0.704011,-0.92801 -1.020016,-1.41602 L 37.400584,165.26258 31.056485,158.91848 60.356943,146.30629 7.3841154,135.25011 0.14000219,128.002 2.432038,125.70996 l 61.084954,12.7522 c 0.708011,-1.33602 1.608026,-2.56404 2.668042,-3.61605 L 36.536571,91.601431 42.524664,85.613338 73.501148,130.79804 c 1.092017,-0.248 2.224035,-0.396 3.392054,-0.396 1.30802,0 2.57604,0.184 3.788059,0.496 L 109.66571,85.545337 c -2.27203,-2.368037 -3.67605,-5.576087 -3.67605,-9.116143 0,-1.040016 0.132,-2.048032 0.36,-3.016047 L 70.189097,57.952905 76.533196,51.608806 110.79373,66.261035 c 2.27604,-1.872029 5.18808,-2.996047 8.36413,-2.996047 1.50002,0 2.94005,0.264005 4.28807,0.728012 L 150.17035,22.168346 128.002,0 0,128.002 128.002,256.004 140.5982,243.4078 83.013297,159.39849 c -1.876029,0.82801 -3.944061,1.29602 -6.120095,1.29602 z m 101.229578,-48.88876 -6.7961,42.23666 c 2.34003,1.88803 3.90006,4.65207 4.19606,7.81212 l 38.5726,8.05212 35.32056,-35.32055 -63.753,-27.25642 c -1.78803,2.37603 -4.46007,4.02406 -7.54012,4.47607 z"
       id="path2"
       inkscape:connector-curvature="0"
       style="fill:#25c7b7" />
  </g>
</svg>
