<?xml version="1.0" encoding="UTF-8" standalone="no"?>
<svg
   xmlns:dc="http://purl.org/dc/elements/1.1/"
   xmlns:cc="http://creativecommons.org/ns#"
   xmlns:rdf="http://www.w3.org/1999/02/22-rdf-syntax-ns#"
   xmlns:svg="http://www.w3.org/2000/svg"
   xmlns="http://www.w3.org/2000/svg"
   xmlns:sodipodi="http://sodipodi.sourceforge.net/DTD/sodipodi-0.dtd"
   xmlns:inkscape="http://www.inkscape.org/namespaces/inkscape"
   version="1.1"
   x="0px"
   y="0px"
   width="100"
   height="100"
   viewBox="0 0 3.3333333 3.3333333"
   id="svg2"
   inkscape:version="0.91 r13725"
   sodipodi:docname="NPMLogo.svg">
  <metadata
     id="metadata16">
    <rdf:RDF>
      <cc:Work
         rdf:about="">
        <dc:format>image/svg+xml</dc:format>
        <dc:type
           rdf:resource="http://purl.org/dc/dcmitype/StillImage" />
        <dc:title></dc:title>
      </cc:Work>
    </rdf:RDF>
  </metadata>
  <defs
     id="defs14" />
  <sodipodi:namedview
     pagecolor="#ffffff"
     bordercolor="#666666"
     borderopacity="1"
     objecttolerance="10"
     gridtolerance="10"
     guidetolerance="10"
     inkscape:pageopacity="0"
     inkscape:pageshadow="2"
     inkscape:window-width="1440"
     inkscape:window-height="855"
     id="namedview12"
     showgrid="false"
     inkscape:zoom="0.57407407"
     inkscape:cx="62.709677"
     inkscape:cy="105"
     inkscape:window-x="0"
     inkscape:window-y="1"
     inkscape:window-maximized="1"
     inkscape:current-layer="svg2" />
  <g
     id="g3344"
     transform="matrix(0.18518519,0,0,0.18518519,0,1.0185185)">
    <path
       id="path4"
       d="M 0,0 18,0 18,6 9,6 9,7 5,7 5,6 0,6 0,0 Z M 1,5 3,5 3,2 4,2 4,5 5,5 5,1 1,1 1,5 Z M 6,1 6,6 8,6 8,5 10,5 10,1 6,1 Z M 8,2 9,2 9,4 8,4 8,2 Z m 3,-1 0,4 2,0 0,-3 1,0 0,3 1,0 0,-3 1,0 0,3 1,0 0,-4 -6,0 z"
       inkscape:connector-curvature="0"
       style="fill:#cb3837" />
    <polygon
       id="polygon6"
       points="1,5 3,5 3,2 4,2 4,5 5,5 5,1 1,1 "
       style="fill:#ffffff" />
    <path
       id="path8"
       d="M 6,1 6,6 8,6 8,5 10,5 10,1 6,1 Z M 9,4 8,4 8,2 9,2 9,4 Z"
       inkscape:connector-curvature="0"
       style="fill:#ffffff" />
    <polygon
       id="polygon10"
       points="16,2 16,5 17,5 17,1 11,1 11,5 13,5 13,2 14,2 14,5 15,5 15,2 "
       style="fill:#ffffff" />
  </g>
</svg>
