<?xml version="1.0" encoding="UTF-8" standalone="no"?>
<svg
   xmlns:dc="http://purl.org/dc/elements/1.1/"
   xmlns:cc="http://creativecommons.org/ns#"
   xmlns:rdf="http://www.w3.org/1999/02/22-rdf-syntax-ns#"
   xmlns:svg="http://www.w3.org/2000/svg"
   xmlns="http://www.w3.org/2000/svg"
   xmlns:sodipodi="http://sodipodi.sourceforge.net/DTD/sodipodi-0.dtd"
   xmlns:inkscape="http://www.inkscape.org/namespaces/inkscape"
   width="100"
   height="100"
   viewBox="0 0 100 100"
   version="1.1"
   preserveAspectRatio="xMidYMid"
   id="svg20"
   sodipodi:docname="Route53Logo.svg"
   inkscape:version="0.92.3 (2405546, 2018-03-11)">
  <metadata
     id="metadata26">
    <rdf:RDF>
      <cc:Work
         rdf:about="">
        <dc:format>image/svg+xml</dc:format>
        <dc:type
           rdf:resource="http://purl.org/dc/dcmitype/StillImage" />
        <dc:title></dc:title>
      </cc:Work>
    </rdf:RDF>
  </metadata>
  <defs
     id="defs24" />
  <sodipodi:namedview
     pagecolor="#ffffff"
     bordercolor="#666666"
     borderopacity="1"
     objecttolerance="10"
     gridtolerance="10"
     guidetolerance="10"
     inkscape:pageopacity="0"
     inkscape:pageshadow="2"
     inkscape:window-width="2400"
     inkscape:window-height="1271"
     id="namedview22"
     showgrid="false"
     inkscape:zoom="0.76129032"
     inkscape:cx="128"
     inkscape:cy="155"
     inkscape:window-x="-9"
     inkscape:window-y="-5"
     inkscape:window-maximized="1"
     inkscape:current-layer="svg20" />
  <g
     id="g18"
     transform="matrix(0.32351885,0,0,0.32351885,8.5895872,-2.6924994e-8)">
    <path
       d="m 73.871,282.05 54.097,27.051 5.284,-3.942 L 131.028,3.598 127.968,0 73.871,27.051 V 282.05"
       id="path2"
       inkscape:connector-curvature="0"
       style="fill:#9d5025" />
    <path
       d="m 182.065,282.05 -54.097,27.051 V 0 l 54.097,27.051 V 282.05"
       id="path4"
       inkscape:connector-curvature="0"
       style="fill:#f68536" />
    <path
       d="M 107.571,112.513 88.587,115.277 0,105.296 0.375,104.313 14.75,100 16.279,100.866 16.625,100 107,110.563 l 0.571,1.95"
       id="path6"
       inkscape:connector-curvature="0"
       style="fill:#6b3a19" />
    <path
       d="m 0,63.988 16.279,-8.144 v 45.022 L 0,105.296 V 63.988"
       id="path8"
       inkscape:connector-curvature="0"
       style="fill:#9d5025" />
    <path
       d="m 256,131.063 -90.661,4.869 -16.975,-1.164 3.198,-1.33 88.375,-5.063 16.063,2.688"
       id="path10"
       inkscape:connector-curvature="0"
       style="fill:#6b3a19" />
    <path
       d="M 107.571,112.513 16.279,100.866 V 55.844 l 91.292,21.414 v 35.255"
       id="path12"
       inkscape:connector-curvature="0"
       style="fill:#f68536" />
    <path
       d="m 239.656,82.225 -91.292,15.691 v 36.852 l 91.292,-5.478 0.531,-1.04 L 240,83.063 239.656,82.225"
       id="path14"
       inkscape:connector-curvature="0"
       style="fill:#9d5025" />
    <path
       d="m 256,131.063 -16.344,-2.125 V 82.225 L 256,88.21 v 42.853"
       id="path16"
       inkscape:connector-curvature="0"
       style="fill:#f68536" />
  </g>
</svg>
