<?xml version="1.0" encoding="UTF-8" standalone="no"?>
<svg
   xmlns:dc="http://purl.org/dc/elements/1.1/"
   xmlns:cc="http://creativecommons.org/ns#"
   xmlns:rdf="http://www.w3.org/1999/02/22-rdf-syntax-ns#"
   xmlns:svg="http://www.w3.org/2000/svg"
   xmlns="http://www.w3.org/2000/svg"
   xmlns:sodipodi="http://sodipodi.sourceforge.net/DTD/sodipodi-0.dtd"
   xmlns:inkscape="http://www.inkscape.org/namespaces/inkscape"
   width="100%"
   height="auto"
   viewBox="0 0 11.840888 11.840006"
   preserveAspectRatio="xMidYMid"
   id="svg2"
   version="1.1"
   inkscape:version="0.91 r13725"
   sodipodi:docname="SequelizeLogo.svg">
  <metadata
     id="metadata62">
    <rdf:RDF>
      <cc:Work
         rdf:about="">
        <dc:format>image/svg+xml</dc:format>
        <dc:type
           rdf:resource="http://purl.org/dc/dcmitype/StillImage" />
        <dc:title></dc:title>
      </cc:Work>
    </rdf:RDF>
  </metadata>
  <defs
     id="defs60" />
  <sodipodi:namedview
     pagecolor="#ffffff"
     bordercolor="#666666"
     borderopacity="1"
     objecttolerance="10"
     gridtolerance="10"
     guidetolerance="10"
     inkscape:pageopacity="0"
     inkscape:pageshadow="2"
     inkscape:window-width="1833"
     inkscape:window-height="1053"
     id="namedview58"
     showgrid="false"
     fit-margin-top="0"
     fit-margin-left="0"
     fit-margin-right="0"
     fit-margin-bottom="0"
     inkscape:zoom="4.6982954"
     inkscape:cx="29.703241"
     inkscape:cy="43.406835"
     inkscape:window-x="1911"
     inkscape:window-y="-9"
     inkscape:window-maximized="1"
     inkscape:current-layer="svg2" />
  <path
     d="m 9.5624565,3.7755895 0,4.2655062 -3.6245257,2.1443983 -0.032774,0.02985 0,1.594211 0.032774,0.03089 5.1046132,-2.9485695 0,-5.943715 -0.04822,-0.011766 -1.4391109,0.8045764 0.00727,0.034693"
     id="path4"
     inkscape:connector-curvature="0"
     style="fill:#2f406a" />
  <path
     d="m 2.3017607,8.0760306 3.6361701,2.1094634 0,1.65492 -5.13958627,-2.9602142 0,-5.9204251 0.0527416,-0.00779 1.43494797,0.8342685 0.015727,0.047757 0,4.2421816"
     id="path6"
     inkscape:connector-curvature="0"
     style="fill:#2379bd" />
  <path
     d="M 2.3017607,3.833849 0.79834453,2.9597747 5.926286,-4.3830501e-4 11.042544,2.9481297 9.5624565,3.7755895 5.926286,1.7010959 2.3017607,3.833849"
     id="path8"
     inkscape:connector-curvature="0"
     style="fill:#03afef" />
  <path
     d="m 5.8755453,7.5881872 -0.039376,-0.040143 0,-1.6017039 0.039376,-0.020331 0.00956,-0.039538 1.3731628,-0.8010121 0.042017,0.00943 0,1.6503516 -1.424744,0.842946"
     id="path10"
     inkscape:connector-curvature="0"
     style="fill:#2f406a" />
  <path
     d="m 4.4270317,6.796666 0,-1.7136204 0.039816,-0.00173 1.3968124,0.8128906 0.011885,0.032011 0,1.6621955 -1.4485136,-0.7915211"
     id="path12"
     inkscape:connector-curvature="0"
     style="fill:#2379bd" />
  <path
     d="M 5.8517756,4.2400564 4.4270317,5.0830456 5.8755453,5.9259918 7.3002892,5.0948896 5.8517756,4.2400564"
     id="path14"
     inkscape:connector-curvature="0"
     style="fill:#03afef" />
  <path
     d="m 4.1024986,8.633017 -0.039336,-0.04014 0,-1.6017299 0.039336,-0.020331 0.0096,-0.039538 1.3731227,-0.8010033 0.042017,0.00943 0,1.6503169 -1.4247439,0.8429812"
     id="path16"
     inkscape:connector-curvature="0"
     style="fill:#2f406a" />
  <path
     d="m 2.654025,7.8414958 0,-1.7136636 0.039775,-0.00173 1.3968124,0.8129339 0.011885,0.032011 0,1.6621959 -1.4484737,-0.7915216"
     id="path18"
     inkscape:connector-curvature="0"
     style="fill:#2379bd" />
  <path
     d="M 4.0787689,5.2848863 2.654025,6.1278322 4.1024986,6.9708216 5.5272424,6.1397195 4.0787689,5.2848863"
     id="path20"
     inkscape:connector-curvature="0"
     style="fill:#03afef" />
  <path
     d="m 7.7752038,8.6725979 -0.039376,-0.04014 0,-1.6017389 0.039376,-0.020331 0.00956,-0.039538 1.3731627,-0.8010121 0.042017,0.00943 0,1.650317 -1.4247439,0.842989"
     id="path22"
     inkscape:connector-curvature="0"
     style="fill:#2f406a" />
  <path
     d="m 6.3266903,7.8810679 0,-1.7136635 0.039816,-0.00173 1.3968124,0.8129339 0.011885,0.032011 0,1.6622046 -1.4485136,-0.7915303"
     id="path24"
     inkscape:connector-curvature="0"
     style="fill:#2379bd" />
  <path
     d="M 7.7514341,5.3244671 6.3266903,6.1674044 7.7752038,7.0103937 9.1999477,6.1792917 7.7514341,5.3244671"
     id="path26"
     inkscape:connector-curvature="0"
     style="fill:#03afef" />
  <path
     d="m 6.0021571,9.7174188 -0.039336,-0.04014 0,-1.6017384 0.039336,-0.020331 0.0096,-0.039537 1.3731627,-0.8009688 0.041977,0.00943 0,1.650317 -1.4247439,0.8429811"
     id="path28"
     inkscape:connector-curvature="0"
     style="fill:#2f406a" />
  <path
     d="m 4.5536836,8.9258977 0,-1.7136634 0.039776,-0.00173 1.3968525,0.8128906 0.011845,0.032011 0,1.6621951 -1.4484736,-0.7915212"
     id="path30"
     inkscape:connector-curvature="0"
     style="fill:#2379bd" />
  <path
     d="M 5.9784275,6.3692536 4.5536836,7.2122343 6.0021571,8.0552236 7.426901,7.2241215 5.9784275,6.3692536"
     id="path32"
     inkscape:connector-curvature="0"
     style="fill:#03afef" />
  <path
     d="m 5.8755453,5.3165422 -0.039376,-0.04023 0,-1.6016952 0.039376,-0.020331 0.00956,-0.039539 1.3731628,-0.8009686 0.042017,0.00943 0,1.6503169 -1.424744,0.8429894"
     id="path34"
     inkscape:connector-curvature="0"
     style="fill:#2f406a" />
  <path
     d="m 4.4270317,4.5250123 0,-1.7136635 0.039816,-0.00173 1.3968124,0.8128906 0.011885,0.032097 0,1.6622042 -1.4485136,-0.79153"
     id="path36"
     inkscape:connector-curvature="0"
     style="fill:#2379bd" />
  <path
     d="M 5.8517756,1.9683681 4.4270317,2.8113488 5.8755453,3.6543381 7.3002892,2.823236 5.8517756,1.9683681"
     id="path38"
     inkscape:connector-curvature="0"
     style="fill:#03afef" />
  <path
     d="m 4.1024986,6.3613288 -0.039336,-0.040143 0,-1.6016952 0.039336,-0.020331 0.0096,-0.039451 1.3731227,-0.801012 0.042017,0.00943 0,1.6503602 -1.4247439,0.842946"
     id="path40"
     inkscape:connector-curvature="0"
     style="fill:#2f406a" />
  <path
     d="m 2.654025,5.5698076 0,-1.713629 0.039775,-0.00173 1.3968124,0.8128905 0.011885,0.032011 0,1.6622042 L 2.6540237,5.570033"
     id="path42"
     inkscape:connector-curvature="0"
     style="fill:#2379bd" />
  <path
     d="M 4.0787689,3.013198 2.654025,3.8561786 4.1024986,4.6991247 5.5272424,3.8680226 4.0787689,3.013198"
     id="path44"
     inkscape:connector-curvature="0"
     style="fill:#03afef" />
  <path
     d="m 7.7752038,6.400901 -0.039376,-0.040143 0,-1.6016953 0.039376,-0.020331 0.00956,-0.039538 1.3731627,-0.8010033 0.042017,0.00943 0,1.6503516 -1.4247439,0.8429461"
     id="path46"
     inkscape:connector-curvature="0"
     style="fill:#2f406a" />
  <path
     d="m 6.3266903,5.6093797 0,-1.7136202 0.039816,-0.00173 1.3968124,0.8128907 0.011885,0.032011 0,1.6621954 -1.4485138,-0.7915218"
     id="path48"
     inkscape:connector-curvature="0"
     style="fill:#2379bd" />
  <path
     d="M 7.7514341,3.0527702 6.3266903,3.8957595 7.7752038,4.7387055 9.1999477,3.9076034 7.7514341,3.0527702"
     id="path50"
     inkscape:connector-curvature="0"
     style="fill:#03afef" />
  <path
     d="m 6.0021571,7.4457309 -0.039336,-0.040143 0,-1.6017298 0.039336,-0.020331 0.0096,-0.039451 1.3731627,-0.8010034 0.041977,0.00943 0,1.6503169 -1.4247439,0.8429806"
     id="path52"
     inkscape:connector-curvature="0"
     style="fill:#2f406a" />
  <path
     d="m 4.5536836,6.6542096 0,-1.7136635 0.039776,-0.00173 1.3968525,0.8129338 0.011845,0.032011 0,1.6622042 -1.4484735,-0.7915218"
     id="path54"
     inkscape:connector-curvature="0"
     style="fill:#2379bd" />
  <path
     d="M 5.9784275,4.0975568 4.5536836,4.9405461 6.0021571,5.7835267 7.426901,4.9524332 5.9784275,4.0975568"
     id="path56"
     inkscape:connector-curvature="0"
     style="fill:#03afef" />
</svg>
