<?xml version="1.0" encoding="UTF-8" standalone="no"?>
<svg
   xmlns:dc="http://purl.org/dc/elements/1.1/"
   xmlns:cc="http://creativecommons.org/ns#"
   xmlns:rdf="http://www.w3.org/1999/02/22-rdf-syntax-ns#"
   xmlns:svg="http://www.w3.org/2000/svg"
   xmlns="http://www.w3.org/2000/svg"
   xmlns:sodipodi="http://sodipodi.sourceforge.net/DTD/sodipodi-0.dtd"
   xmlns:inkscape="http://www.inkscape.org/namespaces/inkscape"
   width="86.515541"
   height="100.00005"
   viewBox="0 0 10.244208 11.840006"
   preserveAspectRatio="xMidYMid"
   id="svg2"
   version="1.1"
   inkscape:version="0.91 r13725"
   sodipodi:docname="sequelize.svg">
  <metadata
     id="metadata62">
    <rdf:RDF>
      <cc:Work
         rdf:about="">
        <dc:format>image/svg+xml</dc:format>
        <dc:type
           rdf:resource="http://purl.org/dc/dcmitype/StillImage" />
        <dc:title></dc:title>
      </cc:Work>
    </rdf:RDF>
  </metadata>
  <defs
     id="defs60" />
  <sodipodi:namedview
     pagecolor="#ffffff"
     bordercolor="#666666"
     borderopacity="1"
     objecttolerance="10"
     gridtolerance="10"
     guidetolerance="10"
     inkscape:pageopacity="0"
     inkscape:pageshadow="2"
     inkscape:window-width="1920"
     inkscape:window-height="1053"
     id="namedview58"
     showgrid="false"
     fit-margin-top="0"
     fit-margin-left="0"
     fit-margin-right="0"
     fit-margin-bottom="0"
     inkscape:zoom="4.6982954"
     inkscape:cx="29.703241"
     inkscape:cy="43.406835"
     inkscape:window-x="-9"
     inkscape:window-y="-9"
     inkscape:window-maximized="1"
     inkscape:current-layer="svg2" />
  <path
     d="m 8.7641198,3.7755181 0,4.26551 -3.6245288,2.1443999 -0.032774,0.02985 0,1.594213 0.032774,0.03089 5.104617,-2.948571 0,-5.9437205 -0.04822,-0.011766 -1.4391116,0.8045772 0.00727,0.034693"
     id="path4"
     inkscape:connector-curvature="0"
     style="fill:#2f406a" />
  <path
     d="m 1.5034175,8.0759631 3.6361735,2.1094649 0,1.654921 L 0,8.880133 0,2.9597025 l 0.0527417,-0.00779 1.4349493,0.8342693 0.015727,0.047757 0,4.2421855"
     id="path6"
     inkscape:connector-curvature="0"
     style="fill:#2379bd" />
  <path
     d="M 1.5034175,3.8337776 0,2.9597025 5.1279462,-5.1312442e-4 10.244208,2.9480575 8.7641198,3.7755181 5.1279462,1.7010226 1.5034175,3.8337776"
     id="path8"
     inkscape:connector-curvature="0"
     style="fill:#03afef" />
  <path
     d="m 5.0772054,7.5881193 -0.039376,-0.040143 0,-1.6017054 0.039376,-0.020331 0.00956,-0.039538 1.373164,-0.8010128 0.042017,0.00943 0,1.6503531 -1.4247452,0.8429468"
     id="path10"
     inkscape:connector-curvature="0"
     style="fill:#2f406a" />
  <path
     d="m 3.6286905,6.7965973 0,-1.7136219 0.039816,-0.00173 1.3968137,0.8128914 0.011885,0.032011 0,1.662197 -1.4485149,-0.7915219"
     id="path12"
     inkscape:connector-curvature="0"
     style="fill:#2379bd" />
  <path
     d="M 5.0534357,4.2399854 3.6286905,5.0829754 5.0772054,5.9259223 6.5019507,5.0948194 5.0534357,4.2399854"
     id="path14"
     inkscape:connector-curvature="0"
     style="fill:#03afef" />
  <path
     d="m 3.3041571,8.63295 -0.039336,-0.04014 0,-1.6017314 0.039336,-0.020331 0.0096,-0.039538 1.373124,-0.8010041 0.042017,0.00943 0,1.6503185 -1.4247452,0.842982"
     id="path16"
     inkscape:connector-curvature="0"
     style="fill:#2f406a" />
  <path
     d="m 1.8556822,7.8414281 0,-1.7136651 0.039776,-0.00173 1.3968137,0.8129346 0.011885,0.032011 0,1.6621974 -1.448475,-0.7915223"
     id="path18"
     inkscape:connector-curvature="0"
     style="fill:#2379bd" />
  <path
     d="M 3.2804274,5.2848162 1.8556822,6.127763 3.3041571,6.9707531 4.7289023,6.1396502 3.2804274,5.2848162"
     id="path20"
     inkscape:connector-curvature="0"
     style="fill:#03afef" />
  <path
     d="m 6.9768657,8.672531 -0.039376,-0.04014 0,-1.6017404 0.039376,-0.020331 0.00956,-0.039538 1.373164,-0.8010128 0.042017,0.00943 0,1.6503185 -1.4247452,0.8429897"
     id="path22"
     inkscape:connector-curvature="0"
     style="fill:#2f406a" />
  <path
     d="m 5.5283508,7.8810003 0,-1.7136651 0.039816,-0.00173 1.3968137,0.8129346 0.011885,0.032011 0,1.6622062 -1.4485149,-0.7915311"
     id="path24"
     inkscape:connector-curvature="0"
     style="fill:#2379bd" />
  <path
     d="M 6.953096,5.3243971 5.5283508,6.1673352 6.9768657,7.0103253 8.4016109,6.1792225 6.953096,5.3243971"
     id="path26"
     inkscape:connector-curvature="0"
     style="fill:#03afef" />
  <path
     d="m 5.2038174,9.7173529 -0.039336,-0.04014 0,-1.6017399 0.039336,-0.020331 0.0096,-0.039538 1.373164,-0.8009695 0.041977,0.00943 0,1.6503185 -1.4247452,0.8429819"
     id="path28"
     inkscape:connector-curvature="0"
     style="fill:#2f406a" />
  <path
     d="m 3.7553425,8.925831 0,-1.713665 0.039776,-0.00173 1.3968538,0.8128913 0.011845,0.032011 0,1.6621966 L 3.7553424,8.926013"
     id="path30"
     inkscape:connector-curvature="0"
     style="fill:#2379bd" />
  <path
     d="M 5.1800877,6.3691846 3.7553425,7.212166 5.2038174,8.0551561 6.6285626,7.2240533 5.1800877,6.3691846"
     id="path32"
     inkscape:connector-curvature="0"
     style="fill:#03afef" />
  <path
     d="m 5.0772054,5.3164722 -0.039376,-0.04023 0,-1.6016967 0.039376,-0.020331 0.00956,-0.039538 1.373164,-0.8009694 0.042017,0.00943 0,1.6503184 -1.4247452,0.8429901"
     id="path34"
     inkscape:connector-curvature="0"
     style="fill:#2f406a" />
  <path
     d="m 3.6286905,4.5249416 0,-1.7136651 0.039816,-0.00173 1.3968137,0.8128913 0.011885,0.032097 0,1.6622057 -1.4485149,-0.7915306"
     id="path36"
     inkscape:connector-curvature="0"
     style="fill:#2379bd" />
  <path
     d="M 5.0534357,1.968295 3.6286905,2.8112765 5.0772054,3.6542665 6.5019507,2.8231637 5.0534357,1.968295"
     id="path38"
     inkscape:connector-curvature="0"
     style="fill:#03afef" />
  <path
     d="m 3.3041571,6.3612598 -0.039336,-0.040143 0,-1.6016967 0.039336,-0.020331 0.0096,-0.039451 1.373124,-0.8010127 0.042017,0.00943 0,1.6503617 -1.4247452,0.8429468"
     id="path40"
     inkscape:connector-curvature="0"
     style="fill:#2f406a" />
  <path
     d="m 1.8556822,5.5697378 0,-1.7136305 0.039776,-0.00173 1.3968137,0.8128913 0.011885,0.032011 0,1.6622057 -1.448475,-0.791522"
     id="path42"
     inkscape:connector-curvature="0"
     style="fill:#2379bd" />
  <path
     d="M 3.2804274,3.0131259 1.8556822,3.8561073 3.3041571,4.6990541 4.7289023,3.8679513 3.2804274,3.0131259"
     id="path44"
     inkscape:connector-curvature="0"
     style="fill:#03afef" />
  <path
     d="m 6.9768657,6.400832 -0.039376,-0.040143 0,-1.6016967 0.039376,-0.020331 0.00956,-0.039538 1.373164,-0.8010041 0.042017,0.00943 0,1.6503531 -1.4247452,0.8429468"
     id="path46"
     inkscape:connector-curvature="0"
     style="fill:#2f406a" />
  <path
     d="m 5.5283508,5.60931 0,-1.7136219 0.039816,-0.00173 1.3968137,0.8128914 0.011885,0.032011 0,1.662197 L 5.5283503,5.609535"
     id="path48"
     inkscape:connector-curvature="0"
     style="fill:#2379bd" />
  <path
     d="M 6.953096,3.0526981 5.5283508,3.8956881 6.9768657,4.738635 8.4016109,3.9075321 6.953096,3.0526981"
     id="path50"
     inkscape:connector-curvature="0"
     style="fill:#03afef" />
  <path
     d="m 5.2038174,7.4456628 -0.039336,-0.040143 0,-1.6017313 0.039336,-0.020331 0.0096,-0.039451 1.373164,-0.8010041 0.041977,0.00943 0,1.6503184 -1.4247452,0.8429814"
     id="path52"
     inkscape:connector-curvature="0"
     style="fill:#2f406a" />
  <path
     d="m 3.7553425,6.6541408 0,-1.7136651 0.039776,-0.00173 1.3968538,0.8129346 0.011845,0.032011 0,1.6622057 -1.4484749,-0.791522"
     id="path54"
     inkscape:connector-curvature="0"
     style="fill:#2379bd" />
  <path
     d="M 5.1800877,4.0974856 3.7553425,4.9404757 5.2038174,5.7834571 6.6285626,4.9523629 5.1800877,4.0974856"
     id="path56"
     inkscape:connector-curvature="0"
     style="fill:#03afef" />
</svg>
