<?xml version="1.0" encoding="UTF-8" standalone="no"?>
<!-- Generator: Adobe Illustrator 16.0.0, SVG Export Plug-In . SVG Version: 6.00 Build 0)  -->

<svg
   xmlns:dc="http://purl.org/dc/elements/1.1/"
   xmlns:cc="http://creativecommons.org/ns#"
   xmlns:rdf="http://www.w3.org/1999/02/22-rdf-syntax-ns#"
   xmlns:svg="http://www.w3.org/2000/svg"
   xmlns="http://www.w3.org/2000/svg"
   xmlns:sodipodi="http://sodipodi.sourceforge.net/DTD/sodipodi-0.dtd"
   xmlns:inkscape="http://www.inkscape.org/namespaces/inkscape"
   version="1.1"
   id="Layer_1"
   x="0px"
   y="0px"
   width="100%"
   height="auto"
   viewBox="0 0 100 100"
   enable-background="new 0 0 600 400"
   xml:space="preserve"
   inkscape:version="0.91 r13725"
   sodipodi:docname="SourceTreeLogo.svg"><metadata
     id="metadata17397"><rdf:RDF><cc:Work
         rdf:about=""><dc:format>image/svg+xml</dc:format><dc:type
           rdf:resource="http://purl.org/dc/dcmitype/StillImage" /><dc:title>Sourcetree-blue</dc:title></cc:Work></rdf:RDF></metadata><defs
     id="defs17395" /><sodipodi:namedview
     pagecolor="#ffffff"
     bordercolor="#666666"
     borderopacity="1"
     objecttolerance="10"
     gridtolerance="10"
     guidetolerance="10"
     inkscape:pageopacity="0"
     inkscape:pageshadow="2"
     inkscape:window-width="1833"
     inkscape:window-height="1053"
     id="namedview17393"
     showgrid="false"
     inkscape:zoom="0.59"
     inkscape:cx="42.372881"
     inkscape:cy="200"
     inkscape:window-x="1911"
     inkscape:window-y="-9"
     inkscape:window-maximized="1"
     inkscape:current-layer="Layer_1" /><title
     id="title17363">Sourcetree-blue</title><g
     id="g21898"
     transform="matrix(1.1410831,0,0,1.1410831,10.340322,-178.19492)"><polygon
       style="fill:#0052cc;fill-opacity:1"
       id="polygon17387"
       points="34.747,156.311 34.747,156.311 34.747,156.311 " /><path
       style="fill:#0052cc;fill-opacity:1"
       inkscape:connector-curvature="0"
       id="path17389"
       d="m 69.493,190.91 c 0,-19.19 -15.557,-34.747 -34.747,-34.747 l 0,0 0,0 c -19.183,-0.027 -34.756,15.502 -34.783,34.686 -0.021,15.083 9.693,28.456 24.044,33.097 l 0,17.409 c 0,1.35 1.094,2.444 2.443,2.444 l 16.494,0 c 1.35,0 2.443,-1.095 2.443,-2.444 l 0,-17.396 c 14.354,-4.622 24.09,-17.971 24.106,-33.049 z m -34.746,11.741 0,0 c -6.488,0 -11.747,-5.26 -11.747,-11.747 0,-6.488 5.259,-11.747 11.747,-11.747 l 0,0 c 6.488,0 11.747,5.259 11.747,11.747 0,6.488 -5.26,11.747 -11.747,11.747 l 0,0 z" /><path
       style="fill:#0052cc;fill-opacity:1"
       inkscape:connector-curvature="0"
       id="path17391"
       d="m 34.747,156.164 0,23.005 0,0 c 6.488,0 11.747,5.26 11.747,11.748 0,6.487 -5.259,11.748 -11.747,11.748 l 0,0 c 5.931,0 10.739,4.808 10.739,10.738 l 0,0 0,10.568 c 18.259,-5.905 28.273,-25.494 22.368,-43.752 -4.643,-14.357 -18.02,-24.076 -33.107,-24.055 z" /></g></svg>