<svg class="w-8 h-8 lg:w-12 lg:h-12 block" viewBox="0 0 64 64" xmlns="http://www.w3.org/2000/svg">
  <defs>
    <linearGradient x1="0%" y1="0%" y2="100%" id="tailwindGradient">
      <stop stop-color="#2383AE" offset="0%"></stop>
      <stop stop-color="#6DD7B9" offset="100%"></stop>
    </linearGradient>
  </defs>
<path d="M13.5 11.1C15.3 3.9 19.8.3 27 .3c10.8 0 12.15 8.1 17.55 9.45 3.6.9 6.75-.45 9.45-4.05-1.8 7.2-6.3 10.8-13.5 10.8-10.8 0-12.15-8.1-17.55-9.45-3.6-.9-6.75.45-9.45 4.05zM0 27.3c1.8-7.2 6.3-10.8 13.5-10.8 10.8 0 12.15 8.1 17.55 9.45 3.6.9 6.75-.45 9.45-4.05-1.8 7.2-6.3 10.8-13.5 10.8-10.8 0-12.15-8.1-17.55-9.45-3.6-.9-6.75.45-9.45 4.05z" transform="translate(5 16)" fill="url(#tailwindGradient)" fill-rule="evenodd"></path></svg>