<?xml version="1.0" encoding="UTF-8" standalone="no"?>
<!-- Generator: Adobe Illustrator 22.1.0, SVG Export Plug-In . SVG Version: 6.00 Build 0)  -->

<svg
   xmlns:dc="http://purl.org/dc/elements/1.1/"
   xmlns:cc="http://creativecommons.org/ns#"
   xmlns:rdf="http://www.w3.org/1999/02/22-rdf-syntax-ns#"
   xmlns:svg="http://www.w3.org/2000/svg"
   xmlns="http://www.w3.org/2000/svg"
   xmlns:sodipodi="http://sodipodi.sourceforge.net/DTD/sodipodi-0.dtd"
   xmlns:inkscape="http://www.inkscape.org/namespaces/inkscape"
   version="1.1"
   id="Layer_1"
   x="0px"
   y="0px"
   viewBox="0 0 100 100"
   xml:space="preserve"
   inkscape:version="0.91 r13725"
   sodipodi:docname="microsoft-teams.svg"
   width="100"
   height="100"><metadata
     id="metadata3874"><rdf:RDF><cc:Work
         rdf:about=""><dc:format>image/svg+xml</dc:format><dc:type
           rdf:resource="http://purl.org/dc/dcmitype/StillImage" /><dc:title></dc:title></cc:Work></rdf:RDF></metadata><defs
     id="defs3872" /><sodipodi:namedview
     pagecolor="#ffffff"
     bordercolor="#666666"
     borderopacity="1"
     objecttolerance="10"
     gridtolerance="10"
     guidetolerance="10"
     inkscape:pageopacity="0"
     inkscape:pageshadow="2"
     inkscape:window-width="1440"
     inkscape:window-height="855"
     id="namedview3870"
     showgrid="false"
     inkscape:zoom="1.6037375"
     inkscape:cx="29.019116"
     inkscape:cy="87.783533"
     inkscape:window-x="0"
     inkscape:window-y="1"
     inkscape:window-maximized="1"
     inkscape:current-layer="Layer_1" /><style
     type="text/css"
     id="style3862">
	.st0{fill:#5558AF;}
	.st1{fill:#FFFFFF;}
</style><g
     id="g3881"
     transform="matrix(0.04199319,0,0,0.04199319,-4.1087198e-6,0.56351707)"><g
       id="g3876"><g
         id="g3864"><path
           class="st0"
           d="m 2015.6,899.2 c 19.5,19.5 42.5,35 67.9,45.8 53,22.2 112.7,22.2 165.8,0 51.2,-21.8 92,-62.5 113.7,-113.7 22.2,-53 22.2,-112.7 0,-165.8 -21.8,-51.2 -62.5,-92 -113.7,-113.7 -53,-22.2 -112.7,-22.2 -165.8,0 -51.2,21.8 -92,62.5 -113.7,113.7 -22.2,53 -22.2,112.7 0,165.8 10.8,25.3 26.4,48.4 45.8,67.9 l 0,0 z m -62.4,197.8 0,642.1 107,0 c 36.8,-0.2 73.4,-3.6 109.5,-10.4 36.3,-6.4 71.3,-18.6 103.7,-36.2 30.6,-16.6 57,-40 77.3,-68.2 21.3,-31.3 32,-68.6 30.5,-106.5 l 0,-420.8 -428,0 z M 1606.4,827.8 c 28.4,0.2 56.6,-5.5 82.8,-16.7 51.2,-21.8 91.9,-62.5 113.6,-113.7 22.2,-53 22.2,-112.7 -0.1,-165.8 -21.8,-51.2 -62.5,-92 -113.7,-113.7 -26.2,-11.2 -54.4,-16.9 -82.9,-16.7 -28.3,-0.2 -56.3,5.5 -82.3,16.7 -19.4,8.3 -25.5,19.1 -52.2,32.1 l 0,329 c 26.8,13.1 32.8,23.8 52.2,32.1 26.1,11.3 54.2,16.9 82.6,16.7 l 0,0 z m -134.8,1081.1 c 26.8,5.8 36.4,10.3 55.4,12.9 20.8,3 41.8,4.5 62.8,4.6 32.4,-0.2 64.8,-3.6 96.5,-10.4 32.3,-6.5 63.3,-18.6 91.5,-35.7 27.7,-17 51,-40.2 68.2,-67.7 19,-32.1 28.3,-69.1 26.9,-106.4 l 0,-743 -401.3,0 0,945.7 z M 0,2113.7 1391.3,2354.5 1391.3,0 0,240.8 0,2113.7 Z"
           id="path3866"
           inkscape:connector-curvature="0"
           style="fill:#5558af" /></g><path
         class="st1"
         d="m 1016.7,722.4 -642.1,39.1 0,148.1 240.8,-9.7 0,686.7 160.5,9.4 0,-702.4 240.8,-10.7 0,-160.5 z"
         id="path3868"
         inkscape:connector-curvature="0"
         style="fill:#ffffff" /></g></g></svg>