<?xml version="1.0" encoding="UTF-8" standalone="no"?>
<!-- Generator: Adobe Illustrator 16.0.0, SVG Export Plug-In . SVG Version: 6.00 Build 0)  -->

<svg
   xmlns:dc="http://purl.org/dc/elements/1.1/"
   xmlns:cc="http://creativecommons.org/ns#"
   xmlns:rdf="http://www.w3.org/1999/02/22-rdf-syntax-ns#"
   xmlns:svg="http://www.w3.org/2000/svg"
   xmlns="http://www.w3.org/2000/svg"
   xmlns:sodipodi="http://sodipodi.sourceforge.net/DTD/sodipodi-0.dtd"
   xmlns:inkscape="http://www.inkscape.org/namespaces/inkscape"
   version="1.1"
   id="Layer_1"
   x="0px"
   y="0px"
   width="100%"
   height="auto"
   viewBox="0 0 100 100"
   enable-background="new 0 0 600 400"
   xml:space="preserve"
   inkscape:version="0.91 r13725"
   sodipodi:docname="TrelloLogo.svg"><metadata
     id="metadata8260"><rdf:RDF><cc:Work
         rdf:about=""><dc:format>image/svg+xml</dc:format><dc:type
           rdf:resource="http://purl.org/dc/dcmitype/StillImage" /><dc:title>mark-trello-blue-Blue</dc:title></cc:Work></rdf:RDF></metadata><defs
     id="defs8258" /><sodipodi:namedview
     pagecolor="#ffffff"
     bordercolor="#666666"
     borderopacity="1"
     objecttolerance="10"
     gridtolerance="10"
     guidetolerance="10"
     inkscape:pageopacity="0"
     inkscape:pageshadow="2"
     inkscape:window-width="1833"
     inkscape:window-height="1053"
     id="namedview8256"
     showgrid="false"
     inkscape:zoom="1.92"
     inkscape:cx="300"
     inkscape:cy="200"
     inkscape:window-x="1911"
     inkscape:window-y="-9"
     inkscape:window-maximized="1"
     inkscape:current-layer="Layer_1" /><title
     id="title8250">mark-trello-blue-Blue</title><g
     id="Layer_2"
     transform="matrix(0.24997563,0,0,0.24997563,-24.992564,-5.2478501e-7)"><g
       id="Layer_1-2"><path
         d="M 450.015,0 149.985,0 C 122.368,0 99.98,22.388 99.98,50.005 l 0,300.029 c 0,27.617 22.388,50.005 50.005,50.005 l 300.029,0 c 27.617,0 50.005,-22.388 50.005,-50.005 l 0,-300.029 C 500.02,22.388 477.632,0 450.015,0 Z M 273.998,303.01 c 0,13.257 -10.746,24.003 -24.002,24.003 l 0,0 -74.007,0 c -13.256,0 -24.002,-10.746 -24.002,-24.003 l 0,0 0,-227.003 c 0,-13.256 10.747,-24.002 24.002,-24.002 l 74.007,0 c 13.256,0 24.002,10.747 24.002,24.002 l 0,227.003 z M 448.015,203 c 0,13.256 -10.746,24.002 -24.003,24.002 l 0,0 -74.007,0 c -13.256,0 -24.003,-10.746 -24.003,-24.002 l 0,-126.993 c 0,-13.256 10.747,-24.002 24.003,-24.002 l 74.007,0 c 13.257,0 24.003,10.747 24.003,24.002 l 0,0 0,126.993 z"
         id="path8254"
         inkscape:connector-curvature="0"
         style="fill:#0052cc" /></g></g></svg>