<?xml version="1.0" encoding="UTF-8" standalone="no"?>
<svg
   xmlns:dc="http://purl.org/dc/elements/1.1/"
   xmlns:cc="http://creativecommons.org/ns#"
   xmlns:rdf="http://www.w3.org/1999/02/22-rdf-syntax-ns#"
   xmlns:svg="http://www.w3.org/2000/svg"
   xmlns="http://www.w3.org/2000/svg"
   xmlns:sodipodi="http://sodipodi.sourceforge.net/DTD/sodipodi-0.dtd"
   xmlns:inkscape="http://www.inkscape.org/namespaces/inkscape"
   viewBox="0 0 100 100"
   id="svg2"
   version="1.1"
   inkscape:version="0.91 r13725"
   sodipodi:docname="WebpackLogo.svg"
   width="100%"
   height="auto">
  <metadata
     id="metadata18">
    <rdf:RDF>
      <cc:Work
         rdf:about="">
        <dc:format>image/svg+xml</dc:format>
        <dc:type
           rdf:resource="http://purl.org/dc/dcmitype/StillImage" />
        <dc:title>logo-on-white-bg</dc:title>
      </cc:Work>
    </rdf:RDF>
  </metadata>
  <defs
     id="defs16" />
  <sodipodi:namedview
     pagecolor="#ffffff"
     bordercolor="#666666"
     borderopacity="1"
     objecttolerance="10"
     gridtolerance="10"
     guidetolerance="10"
     inkscape:pageopacity="0"
     inkscape:pageshadow="2"
     inkscape:window-width="1920"
     inkscape:window-height="1053"
     id="namedview14"
     showgrid="false"
     inkscape:zoom="1.6302349"
     inkscape:cx="266.65435"
     inkscape:cy="189.78647"
     inkscape:window-x="-9"
     inkscape:window-y="-9"
     inkscape:window-maximized="1"
     inkscape:current-layer="svg2" />
  <title
     id="title4">logo-on-white-bg</title>
  <g
     id="g4146"
     transform="matrix(0.11419436,0,0,0.11419436,-42.269043,124.24346)">
    <path
       style="fill:#ffffff"
       inkscape:connector-curvature="0"
       id="path6"
       d="m 808,-1088 387,218.9 0,437.9 -387,218.9 -387,-218.9 0,-437.9 z" />
    <path
       style="fill:#8ed6fb"
       inkscape:connector-curvature="0"
       id="path8"
       d="m 1125.9,-446.3 -305.1,172.6 0,-134.4 190.1,-104.6 115,66.4 z m 20.9,-18.9 0,-360.9 -111.6,64.5 0,232 111.6,64.4 z m -657.9,18.9 305.1,172.6 0,-134.4 -190.2,-104.6 -114.9,66.4 z m -20.9,-18.9 0,-360.9 111.6,64.5 0,232 -111.6,64.4 z m 13.1,-384.3 312.9,-177 0,129.9 -200.5,110.3 -1.6,0.9 -110.8,-64.1 z m 652.6,0 -312.9,-177 0,129.9 200.5,110.2 1.6,0.9 110.8,-64 z" />
    <path
       style="fill:#1c78c0"
       inkscape:connector-curvature="0"
       id="path10"
       d="m 794,-438.7 -187.6,-103.2 0,-204.3 187.6,108.3 0,199.2 z m 26.8,0 187.6,-103.1 0,-204.4 -187.6,108.3 0,199.2 z m -13.4,-207 z M 619.1,-769.8 807.4,-873.3 995.7,-769.8 807.4,-661.1 619.1,-769.8 Z" />
  </g>
</svg>
