<?xml version="1.0" encoding="UTF-8" standalone="no"?>
<svg
   xmlns:dc="http://purl.org/dc/elements/1.1/"
   xmlns:cc="http://creativecommons.org/ns#"
   xmlns:rdf="http://www.w3.org/1999/02/22-rdf-syntax-ns#"
   xmlns:svg="http://www.w3.org/2000/svg"
   xmlns="http://www.w3.org/2000/svg"
   xmlns:sodipodi="http://sodipodi.sourceforge.net/DTD/sodipodi-0.dtd"
   xmlns:inkscape="http://www.inkscape.org/namespaces/inkscape"
   version="1.1"
   x="0px"
   y="0px"
   viewBox="0 0 100 100"
   xml:space="preserve"
   id="svg847"
   sodipodi:docname="noun_wink_1476133.svg"
   width="100"
   height="100"
   inkscape:version="0.92.3 (2405546, 2018-03-11)"><metadata
     id="metadata853"><rdf:RDF><cc:Work
         rdf:about=""><dc:format>image/svg+xml</dc:format><dc:type
           rdf:resource="http://purl.org/dc/dcmitype/StillImage" /><dc:title></dc:title></cc:Work></rdf:RDF></metadata><defs
     id="defs851" /><sodipodi:namedview
     pagecolor="#ffffff"
     bordercolor="#666666"
     borderopacity="1"
     objecttolerance="10"
     gridtolerance="10"
     guidetolerance="10"
     inkscape:pageopacity="0"
     inkscape:pageshadow="2"
     inkscape:window-width="1920"
     inkscape:window-height="1001"
     id="namedview849"
     showgrid="false"
     showguides="true"
     inkscape:guide-bbox="true"
     fit-margin-top="0"
     fit-margin-left="0"
     fit-margin-right="0"
     fit-margin-bottom="0"
     inkscape:zoom="6.7333333"
     inkscape:cx="40"
     inkscape:cy="57.70297"
     inkscape:window-x="-9"
     inkscape:window-y="-9"
     inkscape:window-maximized="1"
     inkscape:current-layer="svg847" /><g
     id="g861"
     transform="matrix(1.25,0,0,1.25,-10,-10)"><path
       id="path835"
       d="M 76.3,19.7 C 68.7,12.2 58.7,8 48,8 37.3,8 27.3,12.2 19.7,19.7 12.2,27.3 8,37.3 8,48 8,58.7 12.2,68.7 19.7,76.3 27.2,83.9 37.3,88 48,88 58.7,88 68.7,83.8 76.3,76.3 83.9,68.8 88,58.7 88,48 88,37.3 83.8,27.3 76.3,19.7 Z M 48,83 C 28.7,83 13,67.3 13,48 13,28.7 28.7,13 48,13 67.3,13 83,28.7 83,48 83,67.3 67.3,83 48,83 Z"
       inkscape:connector-curvature="0" /><path
       id="path837"
       d="m 55.2,67 c -4,1.2 -8.6,1.3 -12.7,0.1 C 40.1,66.4 37.7,65.3 35.8,63.8 35,63.2 34.3,62.5 33.6,61.7 33.5,61.5 33.3,61.4 33.2,61.2 33.1,61.2 33,61.1 33,61 c -0.2,-0.3 -0.5,-0.6 -0.7,-0.9 -0.3,-0.5 -0.6,-1 -0.9,-1.5 0,0 0,-0.1 0,-0.1 0,0 0,0 0,0 0,-0.1 -0.1,-0.1 -0.1,-0.2 -0.3,-0.9 -1.2,-1.5 -2.1,-1.2 -0.9,0.2 -1.5,1.2 -1.2,2.1 0.9,2.6 2.8,4.9 4.8,6.6 4.8,4.2 11.1,5.9 17.4,5.5 2,-0.1 4.1,-0.4 6,-0.9 2.1,-0.6 1.2,-4 -1,-3.4 z"
       inkscape:connector-curvature="0" /><circle
       id="circle839"
       r="5.3000002"
       cy="35.700001"
       cx="60.700001" /><path
       id="path841"
       d="m 30.5,37.5 c -0.5,0.6 0,0 0.2,-0.2 0.2,-0.2 0.3,-0.3 0.5,-0.5 0.1,-0.1 0.2,-0.2 0.3,-0.3 0,0 0.1,-0.1 0.2,-0.1 1.1,-0.7 2.2,-1.2 3.6,-0.9 0.7,0.2 1.2,0.3 1.8,0.8 0,0 0.4,0.3 0.5,0.5 0.1,0.1 0.2,0.2 0.3,0.3 0,0 0.1,0.1 0.1,0.1 0.3,0.3 0.5,0.7 0.7,1.1 0,0 0,0 0,0 0,0 0,0.1 0,0.1 0.7,2.1 4,1.2 3.4,-1 -0.8,-2.7 -3.3,-4.8 -6.1,-5.3 -3.3,-0.6 -6.5,0.9 -8.5,3.6 -0.6,0.8 -0.1,1.9 0.6,2.4 0.9,0.5 1.8,0.1 2.4,-0.6 z M 38,37.2 c 0,0 0,0 0,0 z"
       inkscape:connector-curvature="0" /></g></svg>